<?xml version="1.0" encoding="utf-8"?>
<!-- Generator: Adobe Illustrator 22.0.1, SVG Export Plug-In . SVG Version: 6.00 Build 0)  -->
<svg version="1.1" xmlns="http://www.w3.org/2000/svg" xmlns:xlink="http://www.w3.org/1999/xlink" x="0px" y="0px"
	 viewBox="0 0 512 512" style="enable-background:new 0 0 512 512;" xml:space="preserve">
<style type="text/css">
	.st0{fill:#FF576B;}
	.st1{fill:#6D6E71;}
	.st2{fill:#FFFFFF;}
	.st3{fill:url(#SVGID_1_);}
	.st4{fill:url(#SVGID_2_);}
	.st5{fill:#2BEDA7;}
	.st6{fill:url(#SVGID_3_);}
	.st7{fill:url(#SVGID_4_);}
	.st8{fill:url(#SVGID_5_);}
	.st9{fill:url(#SVGID_6_);}
	.st10{fill:url(#SVGID_7_);}
	.st11{fill:url(#SVGID_8_);}
	.st12{fill:url(#SVGID_9_);}
	.st13{fill:url(#SVGID_10_);}
	.st14{fill:url(#SVGID_11_);}
	.st15{fill:url(#SVGID_12_);}
	.st16{fill:url(#SVGID_13_);}
	.st17{fill:url(#SVGID_14_);}
	.st18{fill:url(#SVGID_15_);}
	.st19{fill:url(#SVGID_16_);}
	.st20{fill:url(#SVGID_17_);}
	.st21{fill:url(#SVGID_18_);}
	.st22{fill:url(#SVGID_19_);}
	.st23{fill:url(#SVGID_20_);}
	.st24{fill:url(#SVGID_21_);}
	.st25{fill:url(#SVGID_22_);}
	.st26{fill:url(#SVGID_23_);}
	.st27{fill:url(#SVGID_24_);}
	.st28{filter:url(#Adobe_OpacityMaskFilter);}
	.st29{mask:url(#mask-2_6_);}
	.st30{fill:#018AFD;}
	.st31{fill:#00A2FD;}
	.st32{fill:#06C0FD;}
	.st33{fill:#03B5FD;}
	.st34{fill:#0074FD;}
	.st35{fill:#005CFD;}
	.st36{filter:url(#Adobe_OpacityMaskFilter_1_);}
	.st37{mask:url(#mask-4_6_);fill:#003CFD;}
	.st38{fill:#0E13FD;}
	.st39{filter:url(#Adobe_OpacityMaskFilter_2_);}
	.st40{mask:url(#mask-2_5_);fill:#FFFFFF;}
	.st41{filter:url(#Adobe_OpacityMaskFilter_3_);}
	.st42{mask:url(#mask-4_5_);fill:#003CFD;}
	.st43{filter:url(#Adobe_OpacityMaskFilter_4_);}
	.st44{mask:url(#mask-2_1_);fill:#FFFFFF;}
	.st45{filter:url(#Adobe_OpacityMaskFilter_5_);}
	.st46{mask:url(#mask-4_4_);fill:#FFFFFF;}
	.st47{fill:#018BFE;}
	.st48{fill:#02C2FE;}
	.st49{fill:#04B6FE;}
	.st50{fill:#0095FE;}
	.st51{fill:#0074FE;}
	.st52{fill:#005CFE;}
	.st53{fill:#003DFE;}
	.st54{fill:#0E13FE;}
	.st55{filter:url(#Adobe_OpacityMaskFilter_6_);}
	.st56{mask:url(#mask-2_7_);}
	.st57{filter:url(#Adobe_OpacityMaskFilter_7_);}
	.st58{mask:url(#mask-2_2_);fill:#FFFFFF;}
	.st59{filter:url(#Adobe_OpacityMaskFilter_8_);}
	.st60{mask:url(#mask-4_3_);fill:#003CFD;}
	.st61{filter:url(#Adobe_OpacityMaskFilter_9_);}
	.st62{mask:url(#mask-4_7_);fill:#003CFD;}
	.st63{filter:url(#Adobe_OpacityMaskFilter_10_);}
	.st64{mask:url(#mask-4_1_);fill:#003CFD;}
	.st65{fill:url(#SVGID_25_);}
	.st66{fill:url(#SVGID_26_);}
	.st67{fill:url(#SVGID_27_);}
	.st68{fill:url(#SVGID_28_);}
	.st69{fill:url(#SVGID_29_);}
	.st70{fill:url(#SVGID_30_);}
	.st71{fill:url(#SVGID_31_);}
	.st72{fill:url(#SVGID_32_);}
	.st73{fill:url(#SVGID_33_);}
	.st74{fill:url(#SVGID_34_);}
	.st75{fill:url(#SVGID_35_);}
	.st76{fill:url(#SVGID_36_);}
	.st77{fill:url(#SVGID_37_);}
	.st78{fill:url(#SVGID_38_);}
	.st79{fill:url(#SVGID_39_);}
	.st80{fill:url(#SVGID_40_);}
	.st81{fill:url(#SVGID_41_);}
	.st82{fill:url(#SVGID_42_);}
	.st83{fill:url(#SVGID_43_);}
	.st84{fill:url(#SVGID_44_);}
	.st85{fill:url(#SVGID_45_);}
	.st86{fill:url(#SVGID_46_);}
	.st87{fill:url(#SVGID_47_);}
	.st88{fill:url(#SVGID_48_);}
	.st89{fill:url(#SVGID_49_);}
	.st90{fill:url(#SVGID_50_);}
	.st91{fill:url(#SVGID_51_);}
	.st92{fill:url(#SVGID_52_);}
	.st93{fill:url(#SVGID_53_);}
	.st94{fill:url(#SVGID_54_);}
	.st95{fill:url(#SVGID_55_);}
	.st96{fill:url(#SVGID_56_);}
	.st97{fill:url(#SVGID_57_);}
	.st98{fill:url(#SVGID_58_);}
	.st99{fill:url(#SVGID_59_);}
	.st100{fill:url(#SVGID_60_);}
	.st101{fill:url(#SVGID_61_);}
	.st102{fill:url(#SVGID_62_);}
	.st103{fill:url(#SVGID_63_);}
	.st104{fill:url(#SVGID_64_);}
	.st105{fill:#BDBDBD;}
	.st106{fill:url(#SVGID_65_);}
	.st107{fill:url(#SVGID_66_);}
	.st108{fill:url(#SVGID_67_);}
	.st109{fill:url(#SVGID_68_);}
	.st110{fill:url(#SVGID_69_);}
	.st111{fill:url(#SVGID_70_);}
	.st112{fill:url(#SVGID_71_);}
	.st113{fill:url(#SVGID_72_);}
	.st114{fill:url(#SVGID_73_);}
	.st115{fill:url(#SVGID_74_);}
	.st116{fill:url(#SVGID_75_);}
	.st117{fill:url(#SVGID_76_);}
	.st118{fill:url(#SVGID_77_);}
	.st119{fill:url(#SVGID_78_);}
	.st120{fill:url(#SVGID_79_);}
	.st121{fill:url(#SVGID_80_);}
	.st122{display:none;}
	.st123{display:inline;}
</style>
<g id="Layer_1">
	<g>
		<g>
			<g>
				<linearGradient id="SVGID_1_" gradientUnits="userSpaceOnUse" x1="443.8261" y1="140.2229" x2="443.8261" y2="308.6716">
					<stop  offset="0" style="stop-color:#2BEDA7"/>
					<stop  offset="1" style="stop-color:#018AFD"/>
				</linearGradient>
				<polygon class="st3" points="429.8,140.2 429.8,292.5 457.9,308.7 457.9,156.4 				"/>
				<linearGradient id="SVGID_2_" gradientUnits="userSpaceOnUse" x1="67.6312" y1="140.2271" x2="67.6312" y2="308.6815">
					<stop  offset="0" style="stop-color:#2BEDA7"/>
					<stop  offset="1" style="stop-color:#018AFD"/>
				</linearGradient>
				<polygon class="st4" points="53.6,308.7 81.7,292.5 81.7,140.2 53.6,156.4 				"/>
			</g>
			<g>
				<polygon class="st5" points="191.2,307.2 320.3,381.7 320.3,349.3 199.4,279.5 191.2,284.3 191.2,284.3 				"/>
				<path class="st5" d="M327.7,424.9l-136.5-78.8v32.4l36.5,21.1l-43.9,25.3c-3,1.7-3,6,0,7.7l21.4,12.4l50.5-29.2l50.5,29.2
					l21.4-12.4C330.7,430.9,330.7,426.6,327.7,424.9z"/>
			</g>
			<g>
				<linearGradient id="SVGID_3_" gradientUnits="userSpaceOnUse" x1="443.8261" y1="214.7912" x2="443.8261" y2="370.4087">
					<stop  offset="0" style="stop-color:#2BEDA7"/>
					<stop  offset="1" style="stop-color:#018AFD"/>
				</linearGradient>
				<path class="st6" d="M429.8,231v135c0,3.4,3.7,5.5,6.6,3.8l19.2-11.1c1.4-0.8,2.2-2.3,2.2-3.8V214.8L429.8,231z"/>
				<linearGradient id="SVGID_4_" gradientUnits="userSpaceOnUse" x1="382.0605" y1="250.4507" x2="382.0605" y2="406.068">
					<stop  offset="0" style="stop-color:#2BEDA7"/>
					<stop  offset="1" style="stop-color:#018AFD"/>
				</linearGradient>
				<path class="st7" d="M374.7,405.5l18.1-10.5c2.1-1.2,3.3-3.4,3.3-5.8V250.5L368,266.7v135C368,405,371.7,407.2,374.7,405.5z"/>
				<linearGradient id="SVGID_5_" gradientUnits="userSpaceOnUse" x1="320.2956" y1="286.1079" x2="320.2956" y2="444.9634">
					<stop  offset="0" style="stop-color:#2BEDA7"/>
					<stop  offset="1" style="stop-color:#018AFD"/>
				</linearGradient>
				<path class="st8" d="M306.3,445l25.9-14.9c1.4-0.8,2.2-2.3,2.2-3.8V286.1l-28.1,16.2V445z"/>
				<linearGradient id="SVGID_6_" gradientUnits="userSpaceOnUse" x1="191.1758" y1="286.1082" x2="191.1758" y2="444.961">
					<stop  offset="0" style="stop-color:#2BEDA7"/>
					<stop  offset="1" style="stop-color:#018AFD"/>
				</linearGradient>
				<path class="st9" d="M179.4,430l25.9,14.9V302.3l-28.1-16.2v140.1C177.1,427.8,178,429.2,179.4,430z"/>
				<linearGradient id="SVGID_7_" gradientUnits="userSpaceOnUse" x1="129.4112" y1="250.4496" x2="129.4112" y2="406.0676">
					<stop  offset="0" style="stop-color:#2BEDA7"/>
					<stop  offset="1" style="stop-color:#018AFD"/>
				</linearGradient>
				<path class="st10" d="M118.7,395l18.1,10.5c3,1.7,6.6-0.4,6.6-3.8v-135l-28.1-16.2v138.8C115.4,391.6,116.6,393.8,118.7,395z"/>
				<linearGradient id="SVGID_8_" gradientUnits="userSpaceOnUse" x1="67.6463" y1="214.7887" x2="67.6463" y2="370.4067">
					<stop  offset="0" style="stop-color:#2BEDA7"/>
					<stop  offset="1" style="stop-color:#018AFD"/>
				</linearGradient>
				<path class="st11" d="M56.9,359.4L75,369.8c3,1.7,6.6-0.4,6.6-3.8V231l-28.1-16.2v138.8C53.6,356,54.9,358.2,56.9,359.4z"/>
			</g>
			<g>
				<path class="st5" d="M457.9,156.4l-28.1-16.2l-50.5,29.2L345.6,150l43.9-25.3c3-1.7,3-6,0-7.7l-18.1-10.5
					c-2.1-1.2-4.6-1.2-6.6,0l-47.2,27.3l-33.7-19.4L327.7,89c3-1.7,3-6,0-7.7l-18.1-10.5c-2.1-1.2-4.6-1.2-6.6,0l-47.2,27.3
					l-47.2-27.3c-2.1-1.2-4.6-1.2-6.6,0l-18.1,10.5c-3,1.7-3,6,0,7.7l246,142l28.1-16.2l-50.5-29.2L457.9,156.4z"/>
				<path class="st5" d="M140.1,106.5L122,116.9c-3,1.7-3,6,0,7.7l246,142l28.1-16.2l-249.3-144
					C144.7,105.3,142.2,105.3,140.1,106.5z"/>
				<polygon class="st5" points="53.6,156.4 104.2,185.6 53.6,214.8 81.7,231 132.2,201.8 165.9,221.3 115.4,250.5 143.4,266.7 
					194,237.5 227.7,256.9 177.1,286.1 205.2,302.3 255.7,273.1 306.3,302.3 334.3,286.1 81.7,140.2 				"/>
			</g>
		</g>
	</g>
</g>
<g id="nyt_x5F_exporter_x5F_info" class="st122">
</g>
</svg>
