<svg width="824" height="220" viewBox="0 0 824 220" fill="none" xmlns="http://www.w3.org/2000/svg"><path d="M578.005 161.13v-.361c0-5.717 6.047-11.765 11.764-11.765h.361v-.879h-.361c-5.717 0-11.764-6.047-11.764-11.764V136h-.88v.361c0 5.717-6.047 11.764-11.764 11.764H565v.879h.361c5.717 0 11.764 6.048 11.764 11.765v.361h.88zm-343-61v-.361c0-5.717 6.047-11.764 11.764-11.764h.361v-.88h-.361c-5.717 0-11.764-6.046-11.764-11.763V75h-.88v.362c0 5.717-6.047 11.763-11.764 11.763H222v.88h.361c5.717 0 11.764 6.047 11.764 11.764v.361h.88z" fill="#222"/><path d="M381.005 193.13v-.361c0-5.717 6.047-11.765 11.764-11.765h.361v-.879h-.361c-5.717 0-11.764-6.047-11.764-11.764V168h-.88v.361c0 5.717-6.046 11.764-11.764 11.764H368v.879h.361c5.718 0 11.764 6.048 11.764 11.765v.361h.88z" fill="#3E3D3D"/><path d="M208.005 161.13v-.361c0-5.717 6.047-11.765 11.764-11.765h.361v-.879h-.361c-5.717 0-11.764-6.047-11.764-11.764V136h-.88v.361c0 5.717-6.047 11.764-11.764 11.764H195v.879h.361c5.717 0 11.764 6.048 11.764 11.765v.361h.88zm-77 7v-.361c0-5.717 6.047-11.765 11.764-11.765h.361v-.879h-.361c-5.717 0-11.764-6.047-11.764-11.764V143h-.88v.361c0 5.717-6.047 11.764-11.764 11.764H118v.879h.361c5.717 0 11.764 6.048 11.764 11.765v.361h.88zm-58-30v-.361c0-5.717 6.047-11.765 11.764-11.765h.361v-.879h-.361c-5.717 0-11.764-6.047-11.764-11.764V113h-.88v.361c0 5.717-6.047 11.764-11.764 11.764h-.36v.879h.36c5.717 0 11.764 6.048 11.764 11.765v.361h.88zm58-45v-.361c0-5.717 6.047-11.765 11.764-11.765h.361v-.879h-.361c-5.717 0-11.764-6.047-11.764-11.764V68h-.88v.361c0 5.717-6.047 11.764-11.764 11.764H118v.88h.361c5.717 0 11.764 6.047 11.764 11.764v.36h.88zm24 46v-.361c0-5.717 6.047-11.764 11.764-11.764h.361v-.88h-.361c-5.717 0-11.764-6.046-11.764-11.764V114h-.88v.361c0 5.718-6.047 11.764-11.764 11.764H142v.88h.361c5.717 0 11.764 6.047 11.764 11.764v.361h.88zm132-50v-.361c0-5.717 6.047-11.765 11.764-11.765h.361v-.879h-.361c-5.717 0-11.764-6.047-11.764-11.764V64h-.88v.361c0 5.717-6.047 11.764-11.764 11.764H274v.88h.361c5.717 0 11.764 6.047 11.764 11.764v.36h.88z" fill="#222"/><path d="M195.005 62.13v-.361c0-5.717 6.047-11.765 11.764-11.765h.361v-.879h-.361c-5.717 0-11.764-6.047-11.764-11.764V37h-.88v.361c0 5.717-6.047 11.764-11.764 11.764H182v.88h.361c5.717 0 11.764 6.047 11.764 11.764v.36h.88z" fill="#4A4A4A"/><path d="M520.005 77.13v-.361c0-5.717 6.047-11.765 11.764-11.765h.361v-.879h-.361c-5.717 0-11.764-6.047-11.764-11.764V52h-.88v.361c0 5.717-6.046 11.764-11.764 11.764H507v.88h.361c5.718 0 11.764 6.047 11.764 11.764v.36h.88zm96 11v-.361c0-5.717 6.047-11.765 11.764-11.765h.361v-.879h-.361c-5.717 0-11.764-6.047-11.764-11.764V63h-.88v.361c0 5.717-6.047 11.764-11.764 11.764H603v.88h.361c5.717 0 11.764 6.047 11.764 11.764v.36h.88zm62-18v-.361c0-5.717 6.047-11.765 11.764-11.765h.361v-.879h-.361c-5.717 0-11.764-6.047-11.764-11.764V45h-.88v.361c0 5.717-6.047 11.764-11.764 11.764H665v.88h.361c5.717 0 11.764 6.047 11.764 11.764v.36h.88zm58 24v-.361c0-5.717 6.047-11.765 11.764-11.765h.361v-.879h-.361c-5.717 0-11.764-6.047-11.764-11.764V69h-.88v.361c0 5.717-6.047 11.764-11.764 11.764H723v.88h.361c5.717 0 11.764 6.047 11.764 11.764v.36h.88zm-33 15v-.361c0-5.717 6.047-11.764 11.764-11.764h.361v-.88h-.361c-5.717 0-11.764-6.046-11.764-11.763V84h-.88v.362c0 5.717-6.047 11.763-11.764 11.763H690v.88h.361c5.717 0 11.764 6.047 11.764 11.764v.361h.88zm-30 0v-.361c0-5.717 6.047-11.764 11.764-11.764h.361v-.88h-.361c-5.717 0-11.764-6.046-11.764-11.763V84h-.88v.362c0 5.717-6.047 11.763-11.764 11.763H660v.88h.361c5.717 0 11.764 6.047 11.764 11.764v.361h.88zm51 54v-.361c0-5.717 6.047-11.765 11.764-11.765h.361v-.879h-.361c-5.717 0-11.764-6.047-11.764-11.764V138h-.88v.361c0 5.717-6.047 11.764-11.764 11.764H711v.879h.361c5.717 0 11.764 6.048 11.764 11.765v.361h.88zm-79-35v-.361c0-5.717 6.047-11.764 11.764-11.764h.361v-.88h-.361c-5.717 0-11.764-6.046-11.764-11.764V103h-.88v.361c0 5.718-6.047 11.764-11.764 11.764H632v.88h.361c5.717 0 11.764 6.047 11.764 11.764v.361h.88z" fill="#222"/><g filter="url(#filter0_f)"><path d="M651.005 162.13v-.361c0-5.717 6.047-11.765 11.764-11.765h.361v-.879h-.361c-5.717 0-11.764-6.047-11.764-11.764V137h-.88v.361c0 5.717-6.047 11.764-11.764 11.764H638v.879h.361c5.717 0 11.764 6.048 11.764 11.765v.361h.88z" fill="#1EC1CB"/></g><g filter="url(#filter1_f)"><path d="M180.005 163.13v-.361c0-5.717 6.047-11.765 11.764-11.765h.361v-.879h-.361c-5.717 0-11.764-6.047-11.764-11.764V138h-.88v.361c0 5.717-6.047 11.764-11.764 11.764H167v.879h.361c5.717 0 11.764 6.048 11.764 11.765v.361h.88z" fill="#1EC1CB"/></g><g filter="url(#filter2_f)"><path d="M262.005 62.13v-.361c0-5.717 6.047-11.765 11.764-11.765h.361v-.879h-.361c-5.717 0-11.764-6.047-11.764-11.764V37h-.88v.361c0 5.717-6.047 11.764-11.764 11.764H249v.88h.361c5.717 0 11.764 6.047 11.764 11.764v.36h.88z" fill="#1EC1CB"/></g><g filter="url(#filter3_f)"><path d="M562.183 84v-.56c0-8.873 9.384-18.258 18.257-18.258h.56v-1.365h-.56c-8.873 0-18.257-9.384-18.257-18.256V45h-1.365v.56c0 8.873-9.385 18.257-18.257 18.257H542v1.365h.561c8.872 0 18.257 9.385 18.257 18.258V84h1.365z" fill="#1EC1CB"/></g><g filter="url(#filter4_f)"><path d="M674.9 86.13v-.275c0-4.352 4.603-8.956 8.955-8.956h.275v-.669h-.275c-4.352 0-8.955-4.603-8.955-8.955V67h-.67v.275c0 4.352-4.603 8.955-8.955 8.955H665v.67h.275c4.352 0 8.955 4.603 8.955 8.955v.275h.67z" fill="#1EC1CB"/></g><g filter="url(#filter5_f)"><path d="M40.9 130.13v-.275c0-4.352 4.603-8.955 8.955-8.955h.275v-.67h-.275c-4.352 0-8.955-4.603-8.955-8.955V111h-.67v.275c0 4.352-4.603 8.955-8.955 8.955H31v.67h.275c4.352 0 8.955 4.603 8.955 8.955v.275h.67z" fill="#1EC1CB"/></g><g filter="url(#filter6_f)"><path d="M154.9 97.13v-.275c0-4.352 4.603-8.955 8.955-8.955h.275v-.67h-.275c-4.352 0-8.955-4.603-8.955-8.955V78h-.67v.275c0 4.352-4.603 8.955-8.955 8.955H145v.67h.275c4.352 0 8.955 4.603 8.955 8.955v.275h.67z" fill="#1EC1CB"/></g><g filter="url(#filter7_f)"><path d="M438.798 65v-.244c0-3.868 4.09-7.959 7.958-7.959H447v-.595h-.244c-3.868 0-7.958-4.09-7.958-7.958V48h-.595v.244c0 3.868-4.091 7.958-7.958 7.958H430v.595h.245c3.867 0 7.958 4.091 7.958 7.959V65h.595z" fill="#1EC1CB"/></g><g filter="url(#filter8_f)"><path d="M777.14 123v-.115c0-1.82 1.925-3.745 3.745-3.745H781v-.28h-.115c-1.82 0-3.745-1.925-3.745-3.745V115h-.28v.115c0 1.82-1.925 3.745-3.745 3.745H773v.28h.115c1.82 0 3.745 1.925 3.745 3.745V123h.28z" fill="#1EC1CB"/></g><g filter="url(#filter9_f)"><path d="M407.28 189v-.23c0-3.64 3.85-7.49 7.49-7.49h.23v-.56h-.23c-3.64 0-7.49-3.85-7.49-7.49V173h-.56v.23c0 3.64-3.85 7.49-7.49 7.49H399v.56h.23c3.64 0 7.49 3.85 7.49 7.49v.23h.56z" fill="#1EC1CB"/></g><path d="M482.005 192.13v-.361c0-5.717 6.047-11.765 11.764-11.765h.361v-.879h-.361c-5.717 0-11.764-6.047-11.764-11.764V167h-.88v.361c0 5.717-6.046 11.764-11.764 11.764H469v.879h.361c5.718 0 11.764 6.048 11.764 11.765v.361h.88z" fill="#323232"/><path d="M455.005 67.13v-.361c0-5.717 6.047-11.765 11.764-11.765h.361v-.879h-.361c-5.717 0-11.764-6.047-11.764-11.764V42h-.88v.361c0 5.717-6.046 11.764-11.764 11.764H442v.88h.361c5.718 0 11.764 6.047 11.764 11.764v.36h.88zm-106-8v-.361c0-5.717 6.047-11.765 11.764-11.765h.361v-.879h-.361c-5.717 0-11.764-6.047-11.764-11.764V34h-.88v.361c0 5.717-6.046 11.764-11.764 11.764H336v.88h.361c5.718 0 11.764 6.047 11.764 11.764v.36h.88zm-98 4v-.361c0-5.717 6.047-11.765 11.764-11.765h.361v-.879h-.361c-5.717 0-11.764-6.047-11.764-11.764V38h-.88v.361c0 5.717-6.047 11.764-11.764 11.764H238v.88h.361c5.717 0 11.764 6.047 11.764 11.764v.36h.88zm340 0v-.361c0-5.717 6.047-11.765 11.764-11.765h.361v-.879h-.361c-5.717 0-11.764-6.047-11.764-11.764V38h-.88v.361c0 5.717-6.047 11.764-11.764 11.764H578v.88h.361c5.717 0 11.764 6.047 11.764 11.764v.36h.88zm-34 22v-.361c0-5.717 6.047-11.765 11.764-11.765h.361v-.879h-.361c-5.717 0-11.764-6.047-11.764-11.764V60h-.88v.361c0 5.717-6.047 11.764-11.764 11.764H544v.88h.361c5.717 0 11.764 6.047 11.764 11.764v.36h.88zm-75-38v-.361c0-5.717 6.047-11.765 11.764-11.765h.361v-.879h-.361c-5.717 0-11.764-6.047-11.764-11.764V22h-.88v.361c0 5.717-6.046 11.764-11.764 11.764H469v.88h.361c5.718 0 11.764 6.047 11.764 11.764v.36h.88zm-110-22v-.361c0-5.717 6.047-11.765 11.764-11.765h.361v-.879h-.361c-5.717 0-11.764-6.047-11.764-11.764V0h-.88v.36c0 5.717-6.046 11.764-11.764 11.764H359v.88h.361c5.718 0 11.764 6.047 11.764 11.764v.36h.88zm-105.41 174v-.489c0-7.735 8.181-15.916 15.916-15.916H283v-1.19h-.489c-7.735 0-15.916-8.181-15.916-15.916v-.489h-1.19v.489c0 7.735-8.181 15.916-15.916 15.916H249v1.19h.489c7.735 0 15.916 8.181 15.916 15.916v.489h1.19z" fill="#222"/><path d="M106.595 119v-.489c0-7.735 8.181-15.916 15.916-15.916H123v-1.19h-.489c-7.735 0-15.916-8.181-15.916-15.916v-.49h-1.19v.49c0 7.735-8.181 15.916-15.916 15.916h-.49v1.19h.49c7.735 0 15.916 8.181 15.916 15.916V119h1.19z" fill="#323232"/><path d="M301.595 52v-.489c0-7.735 8.181-15.916 15.916-15.916H318v-1.19h-.489c-7.735 0-15.916-8.181-15.916-15.916v-.49h-1.19v.49c0 7.735-8.181 15.916-15.916 15.916H284v1.19h.489c7.735 0 15.916 8.181 15.916 15.916V52h1.19zm223 163v-.489c0-7.735 8.181-15.916 15.916-15.916H541v-1.19h-.489c-7.735 0-15.916-8.181-15.916-15.916V181h-1.19v.489c0 7.735-8.181 15.916-15.916 15.916H507v1.19h.489c7.735 0 15.916 8.181 15.916 15.916V215h1.19zm124-139v-.489c0-7.735 8.181-15.916 15.916-15.916H665v-1.19h-.489c-7.735 0-15.916-8.181-15.916-15.916v-.49h-1.19v.49c0 7.735-8.181 15.916-15.916 15.916H631v1.19h.489c7.735 0 15.916 8.181 15.916 15.916V76h1.19z" fill="#222"/><path d="M477.595 77v-.489c0-7.735 8.181-15.916 15.916-15.916H494v-1.19h-.489c-7.735 0-15.916-8.181-15.916-15.916v-.49h-1.19v.49c0 7.735-8.181 15.916-15.916 15.916H460v1.19h.489c7.735 0 15.916 8.181 15.916 15.916V77h1.19zm261 60v-.488c0-7.735 8.181-15.917 15.916-15.917H755v-1.19h-.489c-7.735 0-15.916-8.181-15.916-15.916V103h-1.19v.489c0 7.735-8.181 15.916-15.916 15.916H721v1.19h.489c7.735 0 15.916 8.182 15.916 15.917V137h1.19z" fill="#323232"/><path d="M668.595 184v-.489c0-7.735 8.181-15.916 15.916-15.916H685v-1.19h-.489c-7.735 0-15.916-8.181-15.916-15.916V150h-1.19v.489c0 7.735-8.181 15.916-15.916 15.916H651v1.19h.489c7.735 0 15.916 8.181 15.916 15.916V184h1.19zm-36 14v-.489c0-7.735 8.181-15.916 15.916-15.916H649v-1.19h-.489c-7.735 0-15.916-8.181-15.916-15.916V164h-1.19v.489c0 7.735-8.181 15.916-15.916 15.916H615v1.19h.489c7.735 0 15.916 8.181 15.916 15.916V198h1.19zm-307-3.001v-.488c0-7.735 8.181-15.917 15.916-15.917H342v-1.189h-.489c-7.735 0-15.916-8.181-15.916-15.916V161h-1.19v.489c0 7.735-8.181 15.916-15.916 15.916H308v1.189h.489c7.735 0 15.916 8.182 15.916 15.917v.488h1.19zm-58-32.999v-.489c0-7.735 8.181-15.916 15.916-15.916H284v-1.19h-.489c-7.735 0-15.916-8.181-15.916-15.916V128h-1.19v.489c0 7.735-8.181 15.916-15.916 15.916H250v1.19h.489c7.735 0 15.916 8.181 15.916 15.916V162h1.19zm140-79v-.489c0-7.735 8.181-15.916 15.916-15.916H424v-1.19h-.489c-7.735 0-15.916-8.181-15.916-15.916v-.49h-1.19v.49c0 7.735-8.181 15.916-15.916 15.916H390v1.19h.489c7.735 0 15.916 8.181 15.916 15.916V83h1.19zm-249-11v-.489c0-7.735 8.181-15.916 15.916-15.916H175v-1.19h-.489c-7.735 0-15.916-8.181-15.916-15.916v-.49h-1.19v.49c0 7.735-8.181 15.916-15.916 15.916H141v1.19h.489c7.735 0 15.916 8.181 15.916 15.916V72h1.19z" fill="#222"/><g filter="url(#filter10_f)"><path d="M119.005 136.124v-.361c0-5.717 6.047-11.764 11.764-11.764h.361v-.874h-.361c-5.717 0-11.764-6.047-11.764-11.764V111h-.88v.361c0 5.717-6.047 11.764-11.764 11.764H106v.874h.361c5.717 0 11.764 6.047 11.764 11.764v.361h.88z" fill="#222"/></g><g filter="url(#filter11_f)"><path d="M296.005 187.124v-.361c0-5.717 6.047-11.764 11.764-11.764h.361v-.874h-.361c-5.717 0-11.764-6.047-11.764-11.764V162h-.88v.361c0 5.717-6.047 11.764-11.764 11.764H283v.874h.361c5.717 0 11.764 6.047 11.764 11.764v.361h.88z" fill="#222"/></g><g filter="url(#filter12_f)"><path d="M476.005 94.124v-.36c0-5.718 6.047-11.765 11.764-11.765h.361v-.874h-.361c-5.717 0-11.764-6.047-11.764-11.764V69h-.88v.36c0 5.718-6.046 11.765-11.764 11.765H463v.874h.361c5.718 0 11.764 6.047 11.764 11.764v.361h.88z" fill="#222"/></g><g filter="url(#filter13_f)"><path d="M689.005 174.124v-.361c0-5.717 6.047-11.764 11.764-11.764h.361v-.874h-.361c-5.717 0-11.764-6.047-11.764-11.764V149h-.88v.361c0 5.717-6.047 11.764-11.764 11.764H676v.874h.361c5.717 0 11.764 6.047 11.764 11.764v.361h.88z" fill="#222"/></g><g filter="url(#filter14_f)"><path d="M794.005 103.124v-.361c0-5.717 6.047-11.763 11.764-11.763h.361v-.875h-.361c-5.717 0-11.764-6.047-11.764-11.764V78h-.88v.361c0 5.717-6.047 11.764-11.764 11.764H781V91h.361c5.717 0 11.764 6.046 11.764 11.763v.361h.88z" fill="#222"/></g><g filter="url(#filter15_f)"><path d="M628.005 71.124v-.36c0-5.718 6.047-11.765 11.764-11.765h.361v-.874h-.361c-5.717 0-11.764-6.047-11.764-11.764V46h-.88v.36c0 5.718-6.047 11.765-11.764 11.765H615v.874h.361c5.717 0 11.764 6.047 11.764 11.764v.361h.88z" fill="#222"/></g><g filter="url(#filter16_f)"><path d="M520.005 168.124v-.361c0-5.717 6.047-11.764 11.764-11.764h.361v-.874h-.361c-5.717 0-11.764-6.047-11.764-11.764V143h-.88v.361c0 5.717-6.046 11.764-11.764 11.764H507v.874h.361c5.718 0 11.764 6.047 11.764 11.764v.361h.88z" fill="#222"/></g><g filter="url(#filter17_f)"><path d="M331.005 84.124v-.36c0-5.718 6.047-11.765 11.764-11.765h.361v-.874h-.361c-5.717 0-11.764-6.047-11.764-11.764V59h-.88v.36c0 5.718-6.047 11.765-11.764 11.765H318v.874h.361c5.717 0 11.764 6.047 11.764 11.764v.361h.88z" fill="#222"/></g><g filter="url(#filter18_f)"><path d="M171.005 106.124v-.361c0-5.717 6.047-11.763 11.764-11.763h.361v-.875h-.361c-5.717 0-11.764-6.047-11.764-11.764V81h-.88v.361c0 5.717-6.047 11.764-11.764 11.764H158V94h.361c5.717 0 11.764 6.046 11.764 11.763v.361h.88z" fill="#222"/></g><g filter="url(#filter19_f)"><path d="M223.005 83.124v-.36c0-5.718 6.047-11.765 11.764-11.765h.361v-.874h-.361c-5.717 0-11.764-6.047-11.764-11.764V58h-.88v.36c0 5.718-6.047 11.765-11.764 11.765H210v.874h.361c5.717 0 11.764 6.047 11.764 11.764v.361h.88z" fill="#222"/></g><g filter="url(#filter20_f)"><path d="M131.005 50.124v-.36c0-5.718 6.047-11.765 11.764-11.765h.361v-.874h-.361c-5.717 0-11.764-6.047-11.764-11.764V25h-.88v.36c0 5.718-6.047 11.765-11.764 11.765H118v.874h.361c5.717 0 11.764 6.047 11.764 11.764v.361h.88z" fill="#222"/></g><g filter="url(#filter21_f)"><path d="M195.005 120.124v-.361c0-5.717 6.047-11.763 11.764-11.763h.361v-.875h-.361c-5.717 0-11.764-6.047-11.764-11.764V95h-.88v.361c0 5.717-6.047 11.764-11.764 11.764H182V108h.361c5.717 0 11.764 6.046 11.764 11.763v.361h.88z" fill="#222"/></g><g filter="url(#filter22_f)"><path d="M196.005 200.124v-.361c0-5.717 6.047-11.764 11.764-11.764h.361v-.874h-.361c-5.717 0-11.764-6.047-11.764-11.764V175h-.88v.361c0 5.717-6.047 11.764-11.764 11.764H183v.874h.361c5.717 0 11.764 6.047 11.764 11.764v.361h.88z" fill="#222"/></g><g filter="url(#filter23_f)"><path d="M235.005 169.124v-.361c0-5.717 6.047-11.764 11.764-11.764h.361v-.874h-.361c-5.717 0-11.764-6.047-11.764-11.764V144h-.88v.361c0 5.717-6.047 11.764-11.764 11.764H222v.874h.361c5.717 0 11.764 6.047 11.764 11.764v.361h.88z" fill="#222"/></g><g filter="url(#filter24_f)"><path d="M100.005 187.124v-.361c0-5.717 6.047-11.764 11.764-11.764h.361v-.874h-.361c-5.717 0-11.764-6.047-11.764-11.764V162h-.88v.361c0 5.717-6.047 11.764-11.764 11.764H87v.874h.361c5.717 0 11.764 6.047 11.764 11.764v.361h.88z" fill="#222"/></g><g filter="url(#filter25_f)"><path d="M19.005 128.124v-.361c0-5.717 6.047-11.764 11.764-11.764h.361v-.874h-.361c-5.717 0-11.764-6.047-11.764-11.764V103h-.88v.361c0 5.717-6.047 11.764-11.764 11.764H6v.874h.361c5.717 0 11.764 6.047 11.764 11.764v.361h.88z" fill="#222"/></g><g filter="url(#filter26_f)"><path d="M88.005 101.124v-.361c0-5.717 6.047-11.764 11.764-11.764h.361v-.874h-.361c-5.717 0-11.764-6.047-11.764-11.764V76h-.88v.36c0 5.718-6.047 11.765-11.764 11.765H75v.874h.361c5.717 0 11.764 6.047 11.764 11.764v.361h.88z" fill="#222"/></g><g filter="url(#filter27_f)"><path d="M283.005 59.124v-.36c0-5.718 6.047-11.765 11.764-11.765h.361v-.874h-.361c-5.717 0-11.764-6.047-11.764-11.764V34h-.88v.36c0 5.718-6.047 11.765-11.764 11.765H270v.874h.361c5.717 0 11.764 6.047 11.764 11.764v.361h.88z" fill="#222"/></g><g filter="url(#filter28_f)"><path d="M402.005 62.124v-.36c0-5.718 6.047-11.765 11.764-11.765h.361v-.874h-.361c-5.717 0-11.764-6.047-11.764-11.764V37h-.88v.36c0 5.718-6.046 11.765-11.764 11.765H389v.874h.361c5.718 0 11.764 6.047 11.764 11.764v.361h.88z" fill="#222"/></g><g filter="url(#filter29_f)"><path d="M545.005 72.124v-.36c0-5.718 6.047-11.765 11.764-11.765h.361v-.874h-.361c-5.717 0-11.764-6.047-11.764-11.764V47h-.88v.36c0 5.718-6.046 11.765-11.764 11.765H532v.874h.361c5.718 0 11.764 6.047 11.764 11.764v.361h.88z" fill="#222"/></g><g filter="url(#filter30_f)"><path d="M708.005 72.124v-.36c0-5.718 6.047-11.765 11.764-11.765h.361v-.874h-.361c-5.717 0-11.764-6.047-11.764-11.764V47h-.88v.36c0 5.718-6.047 11.765-11.764 11.765H695v.874h.361c5.717 0 11.764 6.047 11.764 11.764v.361h.88z" fill="#222"/></g><g filter="url(#filter31_f)"><path d="M805.005 134.124v-.361c0-5.717 6.047-11.763 11.764-11.763h.361v-.875h-.361c-5.717 0-11.764-6.047-11.764-11.764V109h-.88v.361c0 5.717-6.047 11.764-11.764 11.764H792V122h.361c5.717 0 11.764 6.046 11.764 11.763v.361h.88z" fill="#222"/></g><g filter="url(#filter32_f)"><path d="M771.005 153.124v-.361c0-5.717 6.047-11.763 11.764-11.763h.361v-.875h-.361c-5.717 0-11.764-6.047-11.764-11.764V128h-.88v.361c0 5.717-6.047 11.764-11.764 11.764H758V141h.361c5.717 0 11.764 6.046 11.764 11.763v.361h.88z" fill="#222"/></g><g filter="url(#filter33_f)"><path d="M693.005 139.124v-.361c0-5.717 6.047-11.763 11.764-11.763h.361v-.875h-.361c-5.717 0-11.764-6.047-11.764-11.764V114h-.88v.361c0 5.717-6.047 11.764-11.764 11.764H680V127h.361c5.717 0 11.764 6.046 11.764 11.763v.361h.88z" fill="#222"/></g><g filter="url(#filter34_f)"><path d="M603.005 187.124v-.361c0-5.717 6.047-11.764 11.764-11.764h.361v-.874h-.361c-5.717 0-11.764-6.047-11.764-11.764V162h-.88v.361c0 5.717-6.047 11.764-11.764 11.764H590v.874h.361c5.717 0 11.764 6.047 11.764 11.764v.361h.88z" fill="#222"/></g><g filter="url(#filter35_f)"><path d="M425.005 188.124v-.361c0-5.717 6.047-11.764 11.764-11.764h.361v-.874h-.361c-5.717 0-11.764-6.047-11.764-11.764V163h-.88v.361c0 5.717-6.046 11.764-11.764 11.764H412v.874h.361c5.718 0 11.764 6.047 11.764 11.764v.361h.88z" fill="#222"/></g><g filter="url(#filter36_f)"><path d="M360.005 169.124v-.361c0-5.717 6.047-11.764 11.764-11.764h.361v-.874h-.361c-5.717 0-11.764-6.047-11.764-11.764V144h-.88v.361c0 5.717-6.046 11.764-11.764 11.764H347v.874h.361c5.718 0 11.764 6.047 11.764 11.764v.361h.88z" fill="#222"/></g><g filter="url(#filter37_f)"><path d="M445.005 169.124v-.361c0-5.717 6.047-11.764 11.764-11.764h.361v-.874h-.361c-5.717 0-11.764-6.047-11.764-11.764V144h-.88v.361c0 5.717-6.046 11.764-11.764 11.764H432v.874h.361c5.718 0 11.764 6.047 11.764 11.764v.361h.88z" fill="#222"/></g><g filter="url(#filter38_f)"><path d="M415.005 94.124v-.36c0-5.718 6.047-11.765 11.764-11.765h.361v-.874h-.361c-5.717 0-11.764-6.047-11.764-11.764V69h-.88v.36c0 5.718-6.046 11.765-11.764 11.765H402v.874h.361c5.718 0 11.764 6.047 11.764 11.764v.361h.88z" fill="#222"/></g><g filter="url(#filter39_f)"><path d="M403.005 169.124v-.361c0-5.717 6.047-11.764 11.764-11.764h.361v-.874h-.361c-5.717 0-11.764-6.047-11.764-11.764V144h-.88v.361c0 5.717-6.046 11.764-11.764 11.764H390v.874h.361c5.718 0 11.764 6.047 11.764 11.764v.361h.88z" fill="#222"/></g><g filter="url(#filter40_f)"><path d="M314.005 163.124v-.361c0-5.717 6.047-11.764 11.764-11.764h.361v-.874h-.361c-5.717 0-11.764-6.047-11.764-11.764V138h-.88v.361c0 5.717-6.047 11.764-11.764 11.764H301v.874h.361c5.717 0 11.764 6.047 11.764 11.764v.361h.88z" fill="#222"/></g><g filter="url(#filter41_f)"><path d="M360.005 213.124v-.361c0-5.717 6.047-11.764 11.764-11.764h.361v-.874h-.361c-5.717 0-11.764-6.047-11.764-11.764V188h-.88v.361c0 5.717-6.046 11.764-11.764 11.764H347v.874h.361c5.718 0 11.764 6.047 11.764 11.764v.361h.88z" fill="#222"/></g><path d="M665 189c0-13.808-11.192-25-25-25s-25 11.192-25 25 11.192 25 25 25c13.808-.007 25-11.199 25-25zm-25.605 17.545v-.503c0-8.018-8.48-16.492-16.492-16.492h-.503v-1.23h.503c8.018 0 16.492-8.48 16.492-16.492v-.503h1.23v.503c0 8.018 8.481 16.492 16.492 16.492h.503v1.23h-.503c-8.018 0-16.492 8.481-16.492 16.492v.503h-1.23z" fill="url(#paint0_radial)"/><path d="M212 49.5c0-9.666-7.834-17.5-17.5-17.5S177 39.834 177 49.5 184.834 67 194.5 67c9.666-.005 17.5-7.84 17.5-17.5zm-17.923 12.282v-.352c0-5.613-5.937-11.545-11.545-11.545h-.352v-.86h.352c5.613 0 11.545-5.937 11.545-11.545v-.352h.861v.352c0 5.613 5.936 11.544 11.544 11.544h.352v.861h-.352c-5.613 0-11.544 5.937-11.544 11.545v.352h-.861z" fill="url(#paint1_radial)"/><path d="M393 68c0-11.599-9.401-21-21-21s-21 9.401-21 21 9.401 21 21 21c11.599-.006 21-9.407 21-21zm-21.508 14.738v-.422c0-6.736-7.124-13.854-13.853-13.854h-.423v-1.033h.423c6.735 0 13.853-7.124 13.853-13.854v-.422h1.033v.422c0 6.736 7.124 13.854 13.854 13.854h.422v1.033h-.422c-6.736 0-13.854 7.124-13.854 13.853v.423h-1.033z" fill="url(#paint2_radial)"/><path d="M112 127c0-7.733-6.268-14-14-14-7.733 0-14 6.267-14 14 0 7.732 6.267 14 14 14 7.732-.004 14-6.272 14-14zm-14.339 9.825v-.281c0-4.491-4.749-9.236-9.236-9.236h-.281v-.689h.281c4.49 0 9.236-4.749 9.236-9.235v-.282h.689v.282c0 4.49 4.749 9.235 9.236 9.235h.281v.689h-.281c-4.491 0-9.236 4.749-9.236 9.236v.281h-.689z" fill="url(#paint3_radial)"/><path d="M777 95c0-6.076-4.924-11-11-11s-11 4.924-11 11c0 6.075 4.924 11 11 11 6.076-.003 11-4.928 11-11zm-11.266 7.72v-.222c0-3.528-3.732-7.256-7.257-7.256h-.221V94.7h.221c3.528 0 7.257-3.732 7.257-7.257v-.221h.541v.221c0 3.528 3.732 7.257 7.257 7.257h.221v.54h-.221c-3.528 0-7.257 3.732-7.257 7.257v.222h-.541z" fill="url(#paint4_radial)"/><defs><filter id="filter0_f" x="632" y="131" width="37.13" height="37.13" filterUnits="userSpaceOnUse" color-interpolation-filters="sRGB"><feFlood flood-opacity="0" result="BackgroundImageFix"/><feBlend in="SourceGraphic" in2="BackgroundImageFix" result="shape"/><feGaussianBlur stdDeviation="3" result="effect1_foregroundBlur"/></filter><filter id="filter1_f" x="161" y="132" width="37.13" height="37.13" filterUnits="userSpaceOnUse" color-interpolation-filters="sRGB"><feFlood flood-opacity="0" result="BackgroundImageFix"/><feBlend in="SourceGraphic" in2="BackgroundImageFix" result="shape"/><feGaussianBlur stdDeviation="3" result="effect1_foregroundBlur"/></filter><filter id="filter2_f" x="243" y="31" width="37.13" height="37.13" filterUnits="userSpaceOnUse" color-interpolation-filters="sRGB"><feFlood flood-opacity="0" result="BackgroundImageFix"/><feBlend in="SourceGraphic" in2="BackgroundImageFix" result="shape"/><feGaussianBlur stdDeviation="3" result="effect1_foregroundBlur"/></filter><filter id="filter3_f" x="536" y="39" width="51" height="51" filterUnits="userSpaceOnUse" color-interpolation-filters="sRGB"><feFlood flood-opacity="0" result="BackgroundImageFix"/><feBlend in="SourceGraphic" in2="BackgroundImageFix" result="shape"/><feGaussianBlur stdDeviation="3" result="effect1_foregroundBlur"/></filter><filter id="filter4_f" x="659" y="61" width="31.13" height="31.13" filterUnits="userSpaceOnUse" color-interpolation-filters="sRGB"><feFlood flood-opacity="0" result="BackgroundImageFix"/><feBlend in="SourceGraphic" in2="BackgroundImageFix" result="shape"/><feGaussianBlur stdDeviation="3" result="effect1_foregroundBlur"/></filter><filter id="filter5_f" x="25" y="105" width="31.13" height="31.13" filterUnits="userSpaceOnUse" color-interpolation-filters="sRGB"><feFlood flood-opacity="0" result="BackgroundImageFix"/><feBlend in="SourceGraphic" in2="BackgroundImageFix" result="shape"/><feGaussianBlur stdDeviation="3" result="effect1_foregroundBlur"/></filter><filter id="filter6_f" x="139" y="72" width="31.13" height="31.13" filterUnits="userSpaceOnUse" color-interpolation-filters="sRGB"><feFlood flood-opacity="0" result="BackgroundImageFix"/><feBlend in="SourceGraphic" in2="BackgroundImageFix" result="shape"/><feGaussianBlur stdDeviation="3" result="effect1_foregroundBlur"/></filter><filter id="filter7_f" x="424" y="42" width="29" height="29" filterUnits="userSpaceOnUse" color-interpolation-filters="sRGB"><feFlood flood-opacity="0" result="BackgroundImageFix"/><feBlend in="SourceGraphic" in2="BackgroundImageFix" result="shape"/><feGaussianBlur stdDeviation="3" result="effect1_foregroundBlur"/></filter><filter id="filter8_f" x="767" y="109" width="20" height="20" filterUnits="userSpaceOnUse" color-interpolation-filters="sRGB"><feFlood flood-opacity="0" result="BackgroundImageFix"/><feBlend in="SourceGraphic" in2="BackgroundImageFix" result="shape"/><feGaussianBlur stdDeviation="3" result="effect1_foregroundBlur"/></filter><filter id="filter9_f" x="393" y="167" width="28" height="28" filterUnits="userSpaceOnUse" color-interpolation-filters="sRGB"><feFlood flood-opacity="0" result="BackgroundImageFix"/><feBlend in="SourceGraphic" in2="BackgroundImageFix" result="shape"/><feGaussianBlur stdDeviation="3" result="effect1_foregroundBlur"/></filter><filter id="filter10_f" x="100" y="105" width="37.13" height="37.124" filterUnits="userSpaceOnUse" color-interpolation-filters="sRGB"><feFlood flood-opacity="0" result="BackgroundImageFix"/><feBlend in="SourceGraphic" in2="BackgroundImageFix" result="shape"/><feGaussianBlur stdDeviation="3" result="effect1_foregroundBlur"/></filter><filter id="filter11_f" x="277" y="156" width="37.13" height="37.124" filterUnits="userSpaceOnUse" color-interpolation-filters="sRGB"><feFlood flood-opacity="0" result="BackgroundImageFix"/><feBlend in="SourceGraphic" in2="BackgroundImageFix" result="shape"/><feGaussianBlur stdDeviation="3" result="effect1_foregroundBlur"/></filter><filter id="filter12_f" x="457" y="63" width="37.13" height="37.124" filterUnits="userSpaceOnUse" color-interpolation-filters="sRGB"><feFlood flood-opacity="0" result="BackgroundImageFix"/><feBlend in="SourceGraphic" in2="BackgroundImageFix" result="shape"/><feGaussianBlur stdDeviation="3" result="effect1_foregroundBlur"/></filter><filter id="filter13_f" x="670" y="143" width="37.13" height="37.124" filterUnits="userSpaceOnUse" color-interpolation-filters="sRGB"><feFlood flood-opacity="0" result="BackgroundImageFix"/><feBlend in="SourceGraphic" in2="BackgroundImageFix" result="shape"/><feGaussianBlur stdDeviation="3" result="effect1_foregroundBlur"/></filter><filter id="filter14_f" x="775" y="72" width="37.13" height="37.124" filterUnits="userSpaceOnUse" color-interpolation-filters="sRGB"><feFlood flood-opacity="0" result="BackgroundImageFix"/><feBlend in="SourceGraphic" in2="BackgroundImageFix" result="shape"/><feGaussianBlur stdDeviation="3" result="effect1_foregroundBlur"/></filter><filter id="filter15_f" x="609" y="40" width="37.13" height="37.124" filterUnits="userSpaceOnUse" color-interpolation-filters="sRGB"><feFlood flood-opacity="0" result="BackgroundImageFix"/><feBlend in="SourceGraphic" in2="BackgroundImageFix" result="shape"/><feGaussianBlur stdDeviation="3" result="effect1_foregroundBlur"/></filter><filter id="filter16_f" x="501" y="137" width="37.13" height="37.124" filterUnits="userSpaceOnUse" color-interpolation-filters="sRGB"><feFlood flood-opacity="0" result="BackgroundImageFix"/><feBlend in="SourceGraphic" in2="BackgroundImageFix" result="shape"/><feGaussianBlur stdDeviation="3" result="effect1_foregroundBlur"/></filter><filter id="filter17_f" x="312" y="53" width="37.13" height="37.124" filterUnits="userSpaceOnUse" color-interpolation-filters="sRGB"><feFlood flood-opacity="0" result="BackgroundImageFix"/><feBlend in="SourceGraphic" in2="BackgroundImageFix" result="shape"/><feGaussianBlur stdDeviation="3" result="effect1_foregroundBlur"/></filter><filter id="filter18_f" x="152" y="75" width="37.13" height="37.124" filterUnits="userSpaceOnUse" color-interpolation-filters="sRGB"><feFlood flood-opacity="0" result="BackgroundImageFix"/><feBlend in="SourceGraphic" in2="BackgroundImageFix" result="shape"/><feGaussianBlur stdDeviation="3" result="effect1_foregroundBlur"/></filter><filter id="filter19_f" x="204" y="52" width="37.13" height="37.124" filterUnits="userSpaceOnUse" color-interpolation-filters="sRGB"><feFlood flood-opacity="0" result="BackgroundImageFix"/><feBlend in="SourceGraphic" in2="BackgroundImageFix" result="shape"/><feGaussianBlur stdDeviation="3" result="effect1_foregroundBlur"/></filter><filter id="filter20_f" x="112" y="19" width="37.13" height="37.124" filterUnits="userSpaceOnUse" color-interpolation-filters="sRGB"><feFlood flood-opacity="0" result="BackgroundImageFix"/><feBlend in="SourceGraphic" in2="BackgroundImageFix" result="shape"/><feGaussianBlur stdDeviation="3" result="effect1_foregroundBlur"/></filter><filter id="filter21_f" x="176" y="89" width="37.13" height="37.124" filterUnits="userSpaceOnUse" color-interpolation-filters="sRGB"><feFlood flood-opacity="0" result="BackgroundImageFix"/><feBlend in="SourceGraphic" in2="BackgroundImageFix" result="shape"/><feGaussianBlur stdDeviation="3" result="effect1_foregroundBlur"/></filter><filter id="filter22_f" x="177" y="169" width="37.13" height="37.124" filterUnits="userSpaceOnUse" color-interpolation-filters="sRGB"><feFlood flood-opacity="0" result="BackgroundImageFix"/><feBlend in="SourceGraphic" in2="BackgroundImageFix" result="shape"/><feGaussianBlur stdDeviation="3" result="effect1_foregroundBlur"/></filter><filter id="filter23_f" x="216" y="138" width="37.13" height="37.124" filterUnits="userSpaceOnUse" color-interpolation-filters="sRGB"><feFlood flood-opacity="0" result="BackgroundImageFix"/><feBlend in="SourceGraphic" in2="BackgroundImageFix" result="shape"/><feGaussianBlur stdDeviation="3" result="effect1_foregroundBlur"/></filter><filter id="filter24_f" x="81" y="156" width="37.13" height="37.124" filterUnits="userSpaceOnUse" color-interpolation-filters="sRGB"><feFlood flood-opacity="0" result="BackgroundImageFix"/><feBlend in="SourceGraphic" in2="BackgroundImageFix" result="shape"/><feGaussianBlur stdDeviation="3" result="effect1_foregroundBlur"/></filter><filter id="filter25_f" x="0" y="97" width="37.13" height="37.124" filterUnits="userSpaceOnUse" color-interpolation-filters="sRGB"><feFlood flood-opacity="0" result="BackgroundImageFix"/><feBlend in="SourceGraphic" in2="BackgroundImageFix" result="shape"/><feGaussianBlur stdDeviation="3" result="effect1_foregroundBlur"/></filter><filter id="filter26_f" x="69" y="70" width="37.13" height="37.124" filterUnits="userSpaceOnUse" color-interpolation-filters="sRGB"><feFlood flood-opacity="0" result="BackgroundImageFix"/><feBlend in="SourceGraphic" in2="BackgroundImageFix" result="shape"/><feGaussianBlur stdDeviation="3" result="effect1_foregroundBlur"/></filter><filter id="filter27_f" x="264" y="28" width="37.13" height="37.124" filterUnits="userSpaceOnUse" color-interpolation-filters="sRGB"><feFlood flood-opacity="0" result="BackgroundImageFix"/><feBlend in="SourceGraphic" in2="BackgroundImageFix" result="shape"/><feGaussianBlur stdDeviation="3" result="effect1_foregroundBlur"/></filter><filter id="filter28_f" x="383" y="31" width="37.13" height="37.124" filterUnits="userSpaceOnUse" color-interpolation-filters="sRGB"><feFlood flood-opacity="0" result="BackgroundImageFix"/><feBlend in="SourceGraphic" in2="BackgroundImageFix" result="shape"/><feGaussianBlur stdDeviation="3" result="effect1_foregroundBlur"/></filter><filter id="filter29_f" x="526" y="41" width="37.13" height="37.124" filterUnits="userSpaceOnUse" color-interpolation-filters="sRGB"><feFlood flood-opacity="0" result="BackgroundImageFix"/><feBlend in="SourceGraphic" in2="BackgroundImageFix" result="shape"/><feGaussianBlur stdDeviation="3" result="effect1_foregroundBlur"/></filter><filter id="filter30_f" x="689" y="41" width="37.13" height="37.124" filterUnits="userSpaceOnUse" color-interpolation-filters="sRGB"><feFlood flood-opacity="0" result="BackgroundImageFix"/><feBlend in="SourceGraphic" in2="BackgroundImageFix" result="shape"/><feGaussianBlur stdDeviation="3" result="effect1_foregroundBlur"/></filter><filter id="filter31_f" x="786" y="103" width="37.13" height="37.124" filterUnits="userSpaceOnUse" color-interpolation-filters="sRGB"><feFlood flood-opacity="0" result="BackgroundImageFix"/><feBlend in="SourceGraphic" in2="BackgroundImageFix" result="shape"/><feGaussianBlur stdDeviation="3" result="effect1_foregroundBlur"/></filter><filter id="filter32_f" x="752" y="122" width="37.13" height="37.124" filterUnits="userSpaceOnUse" color-interpolation-filters="sRGB"><feFlood flood-opacity="0" result="BackgroundImageFix"/><feBlend in="SourceGraphic" in2="BackgroundImageFix" result="shape"/><feGaussianBlur stdDeviation="3" result="effect1_foregroundBlur"/></filter><filter id="filter33_f" x="674" y="108" width="37.13" height="37.124" filterUnits="userSpaceOnUse" color-interpolation-filters="sRGB"><feFlood flood-opacity="0" result="BackgroundImageFix"/><feBlend in="SourceGraphic" in2="BackgroundImageFix" result="shape"/><feGaussianBlur stdDeviation="3" result="effect1_foregroundBlur"/></filter><filter id="filter34_f" x="584" y="156" width="37.13" height="37.124" filterUnits="userSpaceOnUse" color-interpolation-filters="sRGB"><feFlood flood-opacity="0" result="BackgroundImageFix"/><feBlend in="SourceGraphic" in2="BackgroundImageFix" result="shape"/><feGaussianBlur stdDeviation="3" result="effect1_foregroundBlur"/></filter><filter id="filter35_f" x="406" y="157" width="37.13" height="37.124" filterUnits="userSpaceOnUse" color-interpolation-filters="sRGB"><feFlood flood-opacity="0" result="BackgroundImageFix"/><feBlend in="SourceGraphic" in2="BackgroundImageFix" result="shape"/><feGaussianBlur stdDeviation="3" result="effect1_foregroundBlur"/></filter><filter id="filter36_f" x="341" y="138" width="37.13" height="37.124" filterUnits="userSpaceOnUse" color-interpolation-filters="sRGB"><feFlood flood-opacity="0" result="BackgroundImageFix"/><feBlend in="SourceGraphic" in2="BackgroundImageFix" result="shape"/><feGaussianBlur stdDeviation="3" result="effect1_foregroundBlur"/></filter><filter id="filter37_f" x="426" y="138" width="37.13" height="37.124" filterUnits="userSpaceOnUse" color-interpolation-filters="sRGB"><feFlood flood-opacity="0" result="BackgroundImageFix"/><feBlend in="SourceGraphic" in2="BackgroundImageFix" result="shape"/><feGaussianBlur stdDeviation="3" result="effect1_foregroundBlur"/></filter><filter id="filter38_f" x="396" y="63" width="37.13" height="37.124" filterUnits="userSpaceOnUse" color-interpolation-filters="sRGB"><feFlood flood-opacity="0" result="BackgroundImageFix"/><feBlend in="SourceGraphic" in2="BackgroundImageFix" result="shape"/><feGaussianBlur stdDeviation="3" result="effect1_foregroundBlur"/></filter><filter id="filter39_f" x="384" y="138" width="37.13" height="37.124" filterUnits="userSpaceOnUse" color-interpolation-filters="sRGB"><feFlood flood-opacity="0" result="BackgroundImageFix"/><feBlend in="SourceGraphic" in2="BackgroundImageFix" result="shape"/><feGaussianBlur stdDeviation="3" result="effect1_foregroundBlur"/></filter><filter id="filter40_f" x="295" y="132" width="37.13" height="37.124" filterUnits="userSpaceOnUse" color-interpolation-filters="sRGB"><feFlood flood-opacity="0" result="BackgroundImageFix"/><feBlend in="SourceGraphic" in2="BackgroundImageFix" result="shape"/><feGaussianBlur stdDeviation="3" result="effect1_foregroundBlur"/></filter><filter id="filter41_f" x="341" y="182" width="37.13" height="37.124" filterUnits="userSpaceOnUse" color-interpolation-filters="sRGB"><feFlood flood-opacity="0" result="BackgroundImageFix"/><feBlend in="SourceGraphic" in2="BackgroundImageFix" result="shape"/><feGaussianBlur stdDeviation="3" result="effect1_foregroundBlur"/></filter><radialGradient id="paint0_radial" cx="0" cy="0" r="1" gradientUnits="userSpaceOnUse" gradientTransform="rotate(90 225.503 414.5) scale(24.9986)"><stop stop-color="#0FF"/><stop offset=".364" stop-color="#0FF"/><stop offset=".4" stop-color="#0FF"/><stop offset=".458" stop-color="#00FCFC" stop-opacity=".842"/><stop offset=".506" stop-color="#00F2F2" stop-opacity=".712"/><stop offset=".551" stop-color="#00E0E0" stop-opacity=".592"/><stop offset=".593" stop-color="#00C8C8" stop-opacity=".478"/><stop offset=".634" stop-color="#00A9A9" stop-opacity=".368"/><stop offset=".673" stop-color="#008282" stop-opacity=".262"/><stop offset=".712" stop-color="#055" stop-opacity=".157"/><stop offset=".749" stop-color="#002121" stop-opacity=".058"/><stop offset=".77" stop-opacity="0"/></radialGradient><radialGradient id="paint1_radial" cx="0" cy="0" r="1" gradientUnits="userSpaceOnUse" gradientTransform="rotate(90 72.502 122) scale(17.499)"><stop stop-color="#0FF"/><stop offset=".364" stop-color="#0FF"/><stop offset=".4" stop-color="#0FF"/><stop offset=".458" stop-color="#00FCFC" stop-opacity=".842"/><stop offset=".506" stop-color="#00F2F2" stop-opacity=".712"/><stop offset=".551" stop-color="#00E0E0" stop-opacity=".592"/><stop offset=".593" stop-color="#00C8C8" stop-opacity=".478"/><stop offset=".634" stop-color="#00A9A9" stop-opacity=".368"/><stop offset=".673" stop-color="#008282" stop-opacity=".262"/><stop offset=".712" stop-color="#055" stop-opacity=".157"/><stop offset=".749" stop-color="#002121" stop-opacity=".058"/><stop offset=".77" stop-opacity="0"/></radialGradient><radialGradient id="paint2_radial" cx="0" cy="0" r="1" gradientUnits="userSpaceOnUse" gradientTransform="rotate(90 152.003 220) scale(20.9988)"><stop stop-color="#0FF"/><stop offset=".364" stop-color="#0FF"/><stop offset=".4" stop-color="#0FF"/><stop offset=".458" stop-color="#00FCFC" stop-opacity=".842"/><stop offset=".506" stop-color="#00F2F2" stop-opacity=".712"/><stop offset=".551" stop-color="#00E0E0" stop-opacity=".592"/><stop offset=".593" stop-color="#00C8C8" stop-opacity=".478"/><stop offset=".634" stop-color="#00A9A9" stop-opacity=".368"/><stop offset=".673" stop-color="#008282" stop-opacity=".262"/><stop offset=".712" stop-color="#055" stop-opacity=".157"/><stop offset=".749" stop-color="#002121" stop-opacity=".058"/><stop offset=".77" stop-opacity="0"/></radialGradient><radialGradient id="paint3_radial" cx="0" cy="0" r="1" gradientUnits="userSpaceOnUse" gradientTransform="rotate(90 -14.498 112.5) scale(13.9992)"><stop stop-color="#0FF"/><stop offset=".364" stop-color="#0FF"/><stop offset=".4" stop-color="#0FF"/><stop offset=".458" stop-color="#00FCFC" stop-opacity=".842"/><stop offset=".506" stop-color="#00F2F2" stop-opacity=".712"/><stop offset=".551" stop-color="#00E0E0" stop-opacity=".592"/><stop offset=".593" stop-color="#00C8C8" stop-opacity=".478"/><stop offset=".634" stop-color="#00A9A9" stop-opacity=".368"/><stop offset=".673" stop-color="#008282" stop-opacity=".262"/><stop offset=".712" stop-color="#055" stop-opacity=".157"/><stop offset=".749" stop-color="#002121" stop-opacity=".058"/><stop offset=".77" stop-opacity="0"/></radialGradient><radialGradient id="paint4_radial" cx="0" cy="0" r="1" gradientUnits="userSpaceOnUse" gradientTransform="rotate(90 335.501 430.5) scale(10.9994)"><stop stop-color="#0FF"/><stop offset=".364" stop-color="#0FF"/><stop offset=".4" stop-color="#0FF"/><stop offset=".458" stop-color="#00FCFC" stop-opacity=".842"/><stop offset=".506" stop-color="#00F2F2" stop-opacity=".712"/><stop offset=".551" stop-color="#00E0E0" stop-opacity=".592"/><stop offset=".593" stop-color="#00C8C8" stop-opacity=".478"/><stop offset=".634" stop-color="#00A9A9" stop-opacity=".368"/><stop offset=".673" stop-color="#008282" stop-opacity=".262"/><stop offset=".712" stop-color="#055" stop-opacity=".157"/><stop offset=".749" stop-color="#002121" stop-opacity=".058"/><stop offset=".77" stop-opacity="0"/></radialGradient></defs></svg>