<svg width="36" height="40" viewBox="0 0 36 40" fill="none" xmlns="http://www.w3.org/2000/svg"><path d="M35.542 29.73c.275-.474.446-1.007.446-1.487v-16.64c0-.479-.17-1.012-.446-1.486l-17.078 9.806 17.078 9.807z" fill="#00599C"/><path d="M19.982 39.18l14.488-8.32c.418-.24.797-.654 1.072-1.128l-17.078-9.807-17.078 9.807c.275.474.655.888 1.072 1.128l14.488 8.32c.835.479 2.201.479 3.036 0z" fill="#004482"/><path d="M35.542 10.118c-.275-.474-.654-.888-1.071-1.128L19.982.67c-.835-.479-2.2-.479-3.035 0L2.458 8.99c-.834.48-1.517 1.656-1.517 2.615v16.64c0 .479.17 1.013.446 1.487l17.077-9.807 17.078-9.807z" fill="#659AD2"/><path d="M18.464 31.546c-6.442 0-11.682-5.212-11.682-11.62 0-6.407 5.24-11.62 11.682-11.62 4.157 0 8.033 2.226 10.117 5.807l-5.056 2.91a5.872 5.872 0 00-5.06-2.906c-3.222 0-5.842 2.606-5.842 5.81 0 3.203 2.62 5.81 5.841 5.81a5.872 5.872 0 005.062-2.907l5.055 2.91a11.736 11.736 0 01-10.117 5.806z" fill="#fff"/><path d="M30.146 19.276h-1.298v-1.29H27.55v1.29h-1.298v1.291h1.298v1.291h1.298v-1.29h1.298v-1.292zm4.87 0h-1.298v-1.29H32.42v1.29h-1.298v1.291h1.298v1.291h1.298v-1.29h1.298v-1.292z" fill="#fff"/></svg>