<svg width="35" height="43" viewBox="0 0 35 43" fill="none" xmlns="http://www.w3.org/2000/svg"><path d="M24.666 4.452c.464-.525.485-1.268.046-1.658-.44-.39-1.172-.279-1.636.247-.464.526-.484 1.268-.045 1.658.44.39 1.171.28 1.635-.247z" fill="#fff"/><path d="M23.671 5.525a1.54 1.54 0 01-1.028-.38c-.68-.605-.683-1.72 0-2.489a1.98 1.98 0 011.178-.66 1.567 1.567 0 011.283.362c.68.604.683 1.72 0 2.488a1.98 1.98 0 01-1.188.66 1.707 1.707 0 01-.245.02zm.403-2.37a.553.553 0 00-.084 0 .818.818 0 00-.474.275c-.241.273-.286.66-.097.827a.411.411 0 00.332.078.818.818 0 00.474-.275c.242-.273.286-.659.098-.827a.37.37 0 00-.25-.078zm-11.988 1.83c.417-.415.354-1.155-.139-1.653-.493-.499-1.23-.567-1.646-.153-.416.414-.354 1.154.139 1.653.493.498 1.23.567 1.646.153z" fill="#fff"/><path d="M11.399 5.805a1.913 1.913 0 01-1.35-.585c-.703-.712-.766-1.803-.136-2.429a1.53 1.53 0 011.231-.423c.453.05.874.256 1.19.585.704.712.766 1.802.136 2.428a1.5 1.5 0 01-1.071.424zm-.412-2.34a.423.423 0 00-.304.11c-.194.195-.132.6.142.876.274.277.675.347.873.15.198-.197.132-.598-.142-.875a.858.858 0 00-.513-.26l-.056-.002zm.349 12.199s-.626-1.894-1.104-2.436c-.295-.335-1.194-.333-1.108.41.113.99.708 2.358.848 2.7" fill="#fff"/><path d="M9.97 16.927a.583.583 0 01-.543-.366l-.043-.105c-.194-.482-.73-1.756-.843-2.752a1.097 1.097 0 01.626-1.17 1.357 1.357 0 011.505.306c.528.6 1.11 2.307 1.22 2.638a.59.59 0 01-.37.743.584.584 0 01-.742-.372c-.243-.731-.703-1.898-.972-2.223a.236.236 0 00-.091-.026c.103.823.583 1.97.758 2.405l.047.111a.586.586 0 01-.543.811h-.01z" fill="#fff"/><path d="M10.639 5.09C13.21.355 17.555.61 20.067 1.29c2.471.671 5.21 2.627 5.794 8.162.358 3.392-.455 4.866-.583 10.509-.129 5.322-.624 6.8-2.917 9.055-1.874 1.837-7.194 1.646-9.257-.351-2.214-2.145-2.772-2.925-2.833-8.207-.091-6.573-1.388-12.133.368-15.369z" fill="#fff"/><path d="M18.178 30.872h-.414c-2.113-.078-4.015-.744-5.084-1.777-2.427-2.34-2.952-3.347-3.012-8.624-.023-2.021-.162-3.915-.294-5.748-.291-4.049-.546-7.54.749-9.912 1.217-2.246 2.936-3.664 5.106-4.224 1.909-.492 3.768-.199 4.993.129a7.58 7.58 0 013.888 2.45c1.266 1.5 2.048 3.594 2.334 6.223.194 1.911.042 3.249-.16 4.946a54.783 54.783 0 00-.424 5.638c-.132 5.47-.655 7.062-3.11 9.461-.926.911-2.616 1.438-4.572 1.438zm-.795-29.376c-2.1 0-4.561.794-6.222 3.865-1.13 2.075-.886 5.407-.608 9.262.134 1.851.272 3.764.295 5.82.058 5.09.556 5.761 2.654 7.792 1.822 1.755 6.792 1.97 8.44.353 2.079-2.036 2.617-3.267 2.75-8.65a55.58 55.58 0 01.437-5.75c.195-1.685.344-2.902.158-4.68-.446-4.236-2.252-6.813-5.365-7.657a9.762 9.762 0 00-2.539-.355z" fill="#fff"/><path d="M17.765 41.389a.468.468 0 01-.468-.46l-.053-2.396-.04-2.397c0-.24 0-.477-.014-.715-.012-.554-.026-1.128-.016-1.697.012-.718.035-1.56.101-2.422a.471.471 0 01.467-.433h.025a.467.467 0 01.469.43c.072.853.097 1.703.112 2.423.014.57 0 1.145 0 1.699 0 .236 0 .474-.011.71l-.03 2.395-.04 2.397a.47.47 0 01-.467.462h-.025l-.01.004zm-10.235.352a.47.47 0 01-.108-.011H7.4a.469.469 0 01-.352-.558l.617-2.846.628-2.843c.062-.283.124-.566.194-.849.142-.657.29-1.337.457-2.005.212-.844.468-1.843.778-2.831a.47.47 0 01.556-.32h.023a.47.47 0 01.356.534 57.715 57.715 0 01-.564 2.883c-.144.673-.315 1.35-.478 2.003-.07.28-.14.559-.208.838l-.714 2.819-.708 2.826a.47.47 0 01-.455.36zm19.776.71a.468.468 0 01-.46-.39l-.596-3.315-.583-3.316-.144-.807a88.842 88.842 0 01-.428-2.522v-.014a82.813 82.813 0 01-.237-1.662l-.109-.834c-.011-.104-.023-.195-.035-.293-.021-.181-.044-.37-.062-.56a.471.471 0 01.389-.51h.023a.467.467 0 01.533.356c.043.184.082.369.12.548l.06.281.166.825c.11.56.212 1.12.311 1.664.15.84.278 1.693.403 2.52l.124.817.513 3.325.502 3.33a.47.47 0 01-.389.534h-.023a.48.48 0 01-.078.023z" fill="#fff"/><path d="M9.783 13.758S7.337 25.731.973 41.476c0 0 4.043-2.206 6.806-1.843 3.445.453 5.932-1.057 8.104-.552 2.94.683 3.964-.655 6.529-.158s3.747 1.724 5.821 1.736c3.296.02 5.596.989 5.536.858-4.733-10.22-8.128-29.742-8.128-29.742L9.783 13.758z" fill="#fff"/><path d="M33.786 42.118a2.301 2.301 0 01-.583-.117 18.222 18.222 0 00-4.97-.75c-1.254 0-2.201-.412-3.204-.841a12.715 12.715 0 00-2.722-.907c-1.097-.213-1.857-.06-2.738.115-1.001.195-2.139.427-3.813.037-.912-.212-1.944-.01-3.138.224-1.41.275-3.008.585-4.908.34-1.038-.137-2.477.124-4.162.752-.785.293-1.55.635-2.293 1.024a.582.582 0 01-.853-.381.587.587 0 01.03-.356c2.6-6.438 4.858-13.01 6.763-19.688 1.387-4.888 2.007-7.897 2.013-7.928a.586.586 0 01.501-.466l15.866-1.984a.582.582 0 01.65.482c.032.195 3.435 19.565 8.082 29.596a.599.599 0 01-.086.638.535.535 0 01-.435.21zm-12.518-3.9c.425 0 .848.042 1.264.124 1.02.213 2.014.54 2.961.976.93.39 1.735.739 2.754.745 1.52.012 3.033.209 4.507.585-4.02-9.393-7-25.099-7.583-28.231L10.269 14.29c-.218.989-.84 3.706-1.944 7.585a197.56 197.56 0 01-6.25 18.42c1.484-.645 3.878-1.493 5.783-1.244 1.711.225 3.21-.068 4.532-.327 1.272-.25 2.474-.484 3.629-.215 1.43.332 2.348.148 3.319-.045a9.408 9.408 0 011.928-.242l.002-.005z" fill="#fff"/><path d="M24.666 4.452c.464-.525.485-1.268.046-1.658-.44-.39-1.172-.279-1.636.247-.464.526-.484 1.268-.045 1.658.44.39 1.171.28 1.635-.247z" fill="#B1D7E8"/><path d="M24.671 4.459a1.596 1.596 0 01-.777.497c-.156.042-.32.047-.479.014a.903.903 0 01-.43-.223.958.958 0 01-.25-.41 1.232 1.232 0 01-.045-.467c.03-.314.153-.61.352-.855.2-.251.48-.426.793-.497.16-.034.325-.034.485 0a.94.94 0 01.705.634c.05.155.065.319.041.48a1.601 1.601 0 01-.395.827zm-.011-.01c.2-.229.312-.522.315-.827a1.003 1.003 0 00-.315-.763.945.945 0 00-.794-.195c-.29.057-.555.202-.76.416a1.279 1.279 0 00-.356.794.943.943 0 00.329.78c.436.37 1.18.261 1.58-.205z" fill="#000"/><path d="M9.783 13.759S7.337 25.732.973 41.477c0 0 4.043-2.206 6.805-1.843 3.446.452 5.933-1.057 8.105-.552 2.94.682 3.964-.656 6.529-.158 2.564.497 3.746 1.724 5.82 1.735 3.297.02 5.597.99 5.536.859-4.732-10.22-7.802-28.023-7.802-28.023l-16.183.264z" fill="#FF5F00"/><path d="M11.552 26.927s-.295 1.974-.112 2.674c.112.433.913.838 1.166.136.346-.936.432-2.424.463-2.795" fill="#CCC7BA"/><path d="M11.562 26.932c-.02.585-.058 1.184-.064 1.769v.434c.003.14.017.28.043.418a.667.667 0 00.538.468.37.37 0 00.329-.111.573.573 0 00.107-.16c.027-.06.05-.135.076-.195a6.7 6.7 0 00.22-.85c.112-.581.194-1.167.246-1.756h.024c-.02.593-.072 1.185-.154 1.773a6.84 6.84 0 01-.194.876c-.026.072-.043.142-.072.218a.733.733 0 01-.129.213.553.553 0 01-.472.185.878.878 0 01-.457-.195.892.892 0 01-.245-.29.601.601 0 01-.045-.127 3.27 3.27 0 01-.052-.917 9.684 9.684 0 01.27-1.767l.031.014z" fill="#000"/><path d="M22.361 27.067s.06 1.993.366 2.65c.194.406 1.048.661 1.18-.076.173-.975 0-2.463-.04-2.832" fill="#CCC7BA"/><path d="M22.38 27.065c.086.585.154 1.17.251 1.755.026.144.053.287.084.427.028.138.067.273.117.404a.667.667 0 00.612.364.373.373 0 00.303-.167.571.571 0 00.076-.178c.018-.064.026-.14.04-.21.04-.29.062-.583.065-.876a17.217 17.217 0 00-.068-1.771h.024c.084.588.139 1.18.163 1.773.01.3-.001.599-.031.897-.012.076-.016.146-.033.228a.74.74 0 01-.09.232.557.557 0 01-.184.195.602.602 0 01-.247.08.876.876 0 01-.485-.101.884.884 0 01-.293-.242.6.6 0 01-.066-.115 3.26 3.26 0 01-.214-.891 9.858 9.858 0 01-.047-1.787l.024-.017z" fill="#000"/><path d="M12.086 4.985c.417-.415.354-1.155-.139-1.653-.493-.499-1.23-.567-1.646-.153-.416.414-.354 1.154.139 1.653.493.498 1.23.567 1.646.153z" fill="#B1D7E8"/><path d="M11.95 3.327c.225.22.38.5.446.806.032.16.025.326-.02.483a.907.907 0 01-.248.416.954.954 0 01-.424.224c-.154.035-.313.04-.469.014a1.59 1.59 0 01-.826-.408 1.415 1.415 0 01-.443-.83 1.174 1.174 0 01.029-.486.945.945 0 01.676-.665 1.05 1.05 0 01.48-.01c.306.07.584.229.8.456zm-.009.01a1.268 1.268 0 00-.803-.369.994.994 0 00-.778.266.95.95 0 00-.25.78c.038.29.165.563.363.78.201.227.477.375.778.417a.934.934 0 00.799-.279c.395-.41.326-1.16-.11-1.593l.001-.002z" fill="#000"/><path d="M24.19 36.127h-.351l-.158-.257a1.657 1.657 0 01-.892.257c-.693 0-1.044-.3-1.044-.893s.389-.909 1.178-.909c.226 0 .452.015.677.045v-.207c0-.29-.23-.433-.702-.433a3.067 3.067 0 00-.868.13l-.062.02v-.499l.035-.01a3.17 3.17 0 01.895-.134c.855 0 1.29.308 1.29.916v1.976l.003-.002zm-1.265-1.303c-.39 0-.584.133-.584.404s.144.404.456.404c.29.008.575-.08.812-.248v-.513a4.975 4.975 0 00-.684-.047zM9.197 36.13h-.583v-1.81a.57.57 0 00-.537-.574h-.031a1.11 1.11 0 00-.758.32v2.058h-.584v-3.975H7a.286.286 0 01.286.287v1.045c.238-.17.526-.258.818-.251.726 0 1.091.366 1.091 1.09v1.802l.002.008zm2.848-.003h-.352l-.157-.257a1.656 1.656 0 01-.89.257c-.693 0-1.045-.3-1.045-.893s.389-.909 1.178-.909c.227 0 .453.015.677.045v-.207c0-.29-.23-.433-.702-.433a3.067 3.067 0 00-.867.13l-.062.02v-.499l.035-.01a3.17 3.17 0 01.894-.134c.856 0 1.291.308 1.291.916v1.976-.002zm-1.266-1.303c-.389 0-.583.133-.583.404s.144.404.455.404c.29.008.576-.08.813-.248v-.513a4.975 4.975 0 00-.685-.047zm3.962 1.306h-2.273v-.44l.012-.013 1.618-1.95h-1.575v-.497h2.273v.466l-.012.013-1.596 1.95h1.555v.473l-.002-.002zm1.787 0c-.984 0-1.484-.498-1.484-1.48 0-.937.447-1.413 1.33-1.413.82 0 1.237.413 1.237 1.228 0 .122-.008.244-.024.365v.043h-1.944c.02.51.329.759.947.759.28.004.56-.032.83-.105l.062-.018v.507l-.035.01c-.3.077-.61.112-.92.103zm-.89-1.756h1.401c-.025-.427-.243-.636-.665-.636-.422 0-.696.199-.74.626l.003.01zm3.047 1.756h-.583v-3.98h.303a.286.286 0 01.286.286v3.694h-.006zm1.961 0c-1.018 0-1.534-.506-1.534-1.5 0-.925.518-1.393 1.535-1.393.253-.002.506.026.754.082h.039v.501l-.06-.014a3.386 3.386 0 00-.759-.078c-.618 0-.92.293-.92.895 0 .675.302 1.003.92 1.003.255.003.51-.023.759-.078l.06-.014v.502h-.04c-.246.06-.5.09-.753.093zm5.147-.003c-.34 0-.678-.045-1.005-.134l-.037-.01v-.53l.064.02c.314.104.642.157.972.159.616 0 .616-.264.616-.35 0-.138-.042-.323-.414-.323H25.6c-.632 0-.95-.295-.95-.874s.406-.848 1.207-.848c.338 0 .675.046 1.001.134l.037.01v.53l-.064-.02a3.146 3.146 0 00-.972-.159c-.646 0-.646.264-.646.35 0 .22.123.323.39.323h.388c.667 0 1.003.295 1.003.874s-.402.848-1.201.848zm2.912.003h-.511c-.498 0-.75-.27-.75-.802v-2.536h.388l.107.453h.764v.497h-.677v1.56c0 .234.092.342.288.342h.389v.497l.002-.012z" fill="#fff"/><path opacity=".15" d="M11.206 4.054s-.614-.251-.852-.1a.973.973 0 00-.278.233s.243.819.862.965c.618.146.268-1.098.268-1.098zM23.9 3.673s.613-.26.852-.109a.972.972 0 01.28.23s-.233.821-.85.975c-.616.154-.281-1.096-.281-1.096z" fill="#000"/><path d="M11.334 4.546a.463.463 0 00.31-.576.462.462 0 00-.567-.324.463.463 0 00-.311.576.46.46 0 00.568.324zm12.794-.423a.464.464 0 00.097-.648.461.461 0 00-.644-.11.464.464 0 00-.097.647c.151.21.44.26.644.111z" fill="#000"/><path d="M10.639 5.09C13.21.355 17.555.61 20.067 1.29c2.471.671 5.21 2.627 5.794 8.162.358 3.392-.455 4.866-.583 10.509-.129 5.322-.624 6.8-2.917 9.055-1.874 1.837-7.194 1.646-9.257-.351-2.214-2.145-2.772-2.925-2.833-8.207-.091-6.573-1.388-12.133.368-15.369z" fill="#B1D7E8"/><path d="M10.63 5.08a9.198 9.198 0 011.388-1.95 7.112 7.112 0 011.902-1.44 7.223 7.223 0 012.275-.722 9.01 9.01 0 012.391-.011c.397.049.791.12 1.18.212.39.09.774.207 1.147.351a6.942 6.942 0 012.058 1.233 7.34 7.34 0 011.528 1.862c.201.348.38.71.533 1.08.155.372.288.751.4 1.138.117.39.195.78.286 1.17.091.39.14.792.183 1.19.096.797.13 1.6.1 2.403-.028.801-.126 1.597-.225 2.39-.099.794-.194 1.586-.274 2.382-.037.39-.07.796-.091 1.195-.022.4-.045.798-.063 1.198-.03.798-.04 1.597-.073 2.397-.034.8-.078 1.6-.173 2.395a10.73 10.73 0 01-.514 2.34 6.843 6.843 0 01-.51 1.095 7.76 7.76 0 01-.691.986 12.52 12.52 0 01-.81.89c-.071.07-.14.142-.213.212a3.597 3.597 0 01-.74.525 6.548 6.548 0 01-2.307.67 10.26 10.26 0 01-2.401.003 8.861 8.861 0 01-2.333-.585 5.618 5.618 0 01-1.064-.585 4.054 4.054 0 01-.47-.39l-.43-.418a13.47 13.47 0 01-.825-.878 6 6 0 01-.69-.994 5.556 5.556 0 01-.457-1.123 9.064 9.064 0 01-.252-1.182 20.926 20.926 0 01-.177-2.4c-.012-.4-.016-.799-.016-1.199s0-.8-.02-1.197c-.042-1.598-.151-3.193-.262-4.788-.11-1.596-.223-3.19-.212-4.79.004-.801.069-1.6.195-2.391a7.23 7.23 0 01.727-2.273zm.013 0a7.204 7.204 0 00-.727 2.277c-.12.79-.18 1.588-.179 2.387-.01 1.599.123 3.194.24 4.788.116 1.593.243 3.189.297 4.788.054 1.599.043 3.202.266 4.778.055.395.136.786.243 1.17.109.38.258.746.446 1.092a8.37 8.37 0 001.485 1.841c.141.141.283.28.426.42.143.135.295.26.457.372.324.225.67.414 1.034.564a8.723 8.723 0 002.29.585 10.13 10.13 0 002.37.014c.395-.045.785-.12 1.167-.223.381-.1.75-.244 1.099-.427a3.47 3.47 0 00.492-.318c.078-.06.152-.126.224-.195.071-.066.141-.138.211-.208.282-.281.555-.572.805-.878.255-.306.485-.633.689-.975.2-.342.37-.7.507-1.073.26-.753.435-1.534.521-2.327.05-.39.086-.793.115-1.191.03-.398.052-.798.068-1.196.015-.398.03-.797.04-1.197a57.805 57.805 0 01.22-3.593c.07-.795.166-1.591.25-2.385.083-.794.169-1.59.194-2.387v-.895c0-.1 0-.195-.014-.299l-.02-.29c0-.1-.017-.195-.025-.299-.017-.195-.035-.39-.06-.585a14.71 14.71 0 00-.463-2.34 10.293 10.293 0 00-.388-1.126 8.899 8.899 0 00-.521-1.068 7.35 7.35 0 00-1.49-1.84 6.848 6.848 0 00-2.03-1.24 8.34 8.34 0 00-1.133-.359 10.708 10.708 0 00-1.167-.22 8.955 8.955 0 00-2.376 0c-1.594.2-3.07.952-4.17 2.126a9.18 9.18 0 00-1.393 1.938V5.08z" fill="#000"/><path opacity=".4" d="M17.95 27.502c2.533 0 4.587-2.939 4.587-6.565 0-3.625-2.054-6.564-4.587-6.564s-4.587 2.939-4.587 6.564c0 3.626 2.054 6.565 4.587 6.565z" fill="#fff"/><path d="M26.117 14.307s-5.638.73-7.866.791c-2.229.063-6.584.05-8.445-.553l-.044-1.348a23.12 23.12 0 008.36 1.56c4.249-.05 6.78-1.414 7.778-1.755l.217 1.305z" fill="#FF5F00"/><path d="M14.026 3.372c2.032-.086 3.033 1.273 3.021 3.054-.012 1.78-1.392 3.243-2.946 3.233a2.975 2.975 0 01-2.099-.932 2.992 2.992 0 01-.817-2.151c.018-1.783 1.289-3.132 2.84-3.204z" fill="#fff"/><path d="M14.025 3.364c.4-.024.802.02 1.188.131.388.115.742.323 1.03.607.289.287.51.635.648 1.018.136.383.21.786.22 1.193.037.83-.22 1.648-.727 2.306a3.24 3.24 0 01-.936.81c-.364.21-.772.335-1.191.364a3.01 3.01 0 01-1.774-.498 3.025 3.025 0 01-1.155-1.44 3.266 3.266 0 01-.217-1.206c.001-.408.071-.813.208-1.198.136-.382.341-.737.604-1.045a3 3 0 01.94-.745 2.789 2.789 0 011.162-.297zm0 .016c-.399.017-.79.121-1.145.304a2.97 2.97 0 00-.924.745c-.257.307-.455.66-.583 1.04a3.555 3.555 0 00-.18 1.17c.003.401.083.799.235 1.17.151.37.375.705.659.987a2.88 2.88 0 002.166.844 2.62 2.62 0 001.131-.335c.347-.196.654-.458.902-.77a3.424 3.424 0 00.747-2.22 3.785 3.785 0 00-.194-1.17 2.657 2.657 0 00-.619-1.012 2.447 2.447 0 00-1.013-.609 3.513 3.513 0 00-1.182-.144z" fill="#0B2A35"/><path d="M15.243 6.613a1.144 1.144 0 10-2.254-.388 1.144 1.144 0 102.254.388z" fill="#000"/><path d="M20.9 3.277c-2.027.13-2.883 1.576-2.684 3.327.198 1.751 1.72 3.046 3.264 2.87a2.962 2.962 0 001.983-1.133 2.978 2.978 0 00.593-2.21c-.2-1.754-1.605-2.954-3.155-2.854z" fill="#fff"/><path d="M20.901 3.285a3.54 3.54 0 00-1.15.27 2.447 2.447 0 00-.936.703c-.243.31-.411.673-.49 1.06a3.62 3.62 0 00-.05 1.17c.077.778.43 1.503.993 2.044.275.269.599.482.955.628.35.147.727.214 1.106.195a2.76 2.76 0 001.089-.293 2.83 2.83 0 00.888-.704 3.036 3.036 0 00.682-2.157 3.267 3.267 0 00-.938-2.102 2.784 2.784 0 00-2.149-.813zm0-.015c.397-.025.795.035 1.167.175.373.142.714.359 1.003.636.29.279.523.61.69.975.168.364.272.754.308 1.153.038.399 0 .801-.113 1.186a2.92 2.92 0 01-2.627 2.099c-.4.017-.799-.056-1.167-.213a3.11 3.11 0 01-.985-.667 3.39 3.39 0 01-.982-2.13 3.73 3.73 0 01.077-1.19c.09-.39.266-.755.516-1.067.256-.308.583-.55.952-.704a3.56 3.56 0 011.16-.253h.001z" fill="#0B2A35"/><path d="M21.279 7.254a1.093 1.093 0 00-.594-2.102 1.093 1.093 0 00.594 2.102z" fill="#000"/><path opacity=".05" d="M24.03 6.37s-.738 1.746-2.556 1.814a5.239 5.239 0 01-3.196-1.033 3.127 3.127 0 001.555 2.399c.848.513 2.334.39 3.174-.336.84-.725 1.086-1.367 1.022-2.843z" fill="#000"/><path d="M17.65 11.719l-.218.005a.261.261 0 00-.254.268l.025 1.052a.261.261 0 00.266.255l.218-.005a.261.261 0 00.254-.267l-.025-1.053a.26.26 0 00-.266-.255z" fill="#fff"/><path d="M17.695 13.293h-.13a1.133 1.133 0 01-.131 0 .272.272 0 01-.212-.149.338.338 0 01-.033-.132l-.012-.13-.025-.262a22.062 22.062 0 01-.049-.523v-.136a.354.354 0 01.342-.345h.13a.902.902 0 01.147 0 .347.347 0 01.249.218.32.32 0 01.021.162v.13l-.014.262c0 .175-.017.349-.023.524v.13a.275.275 0 01-.26.25zm0 0a.255.255 0 00.213-.127.24.24 0 00.033-.123v-.13a15.629 15.629 0 00-.048-.523l-.026-.262-.011-.13a.258.258 0 000-.053.176.176 0 00-.152-.133h-.244a.17.17 0 00-.139.076.178.178 0 00-.029.078v.125c0 .174-.014.35-.023.525l-.014.261v.13a.264.264 0 00.016.124.252.252 0 00.194.152c.049.017.136.01.23.01z" fill="#000"/><path opacity=".05" d="M11.177 6.736s.851 1.767 2.671 1.767c1.82 0 3.232-1.242 3.232-1.242s-.475 2.13-1.913 2.684c-.875.337-2.345.216-2.956-.52-.704-.846-1.063-1.476-1.034-2.689z" fill="#000"/><path d="M18.454 11.698l-.257.006a.241.241 0 00-.235.248l.026 1.092a.242.242 0 00.247.236l.256-.006a.242.242 0 00.236-.248l-.026-1.092a.241.241 0 00-.247-.236z" fill="#fff"/><path d="M18.493 13.271h-.262a.25.25 0 01-.226-.127.295.295 0 01-.037-.132l-.011-.13-.026-.264c-.017-.176-.035-.351-.048-.527v-.171a.336.336 0 010-.044.335.335 0 01.32-.283h.265a.328.328 0 01.288.195.292.292 0 01.027.084.396.396 0 010 .08v.133l-.014.263c0 .175-.017.353-.023.528v.127a.272.272 0 01-.029.13.25.25 0 01-.224.14zm0 0a.233.233 0 00.226-.269v-.13c-.014-.176-.03-.352-.049-.527l-.025-.263-.012-.131a.215.215 0 000-.05.154.154 0 00-.156-.113h-.26a.15.15 0 00-.142.114v.178c0 .175-.013.35-.023.528l-.014.263v.133a.226.226 0 00.22.254l.235.013z" fill="#000"/><path opacity=".1" d="M16.077 11.051s-.113-.033-.12.585c-.009.619.532.892.91.976.376.083.705-.39 1.273-.227.567.164 1.133.248 1.464-.218.33-.466.155-1.31-.412-1.31-.568 0-3.115.194-3.115.194z" fill="#000"/><path d="M16.894 10.345s-.862.148-.87.78c-.007.632.514.88.877.956.364.076.68-.39 1.227-.228s1.091.248 1.41-.22c.319-.469-.142-1.257-.69-1.262l-1.954-.026z" fill="#CCC7BA"/><path d="M16.895 10.358c-.185.036-.36.112-.512.224a.64.64 0 00-.27.439.94.94 0 00.025.253.876.876 0 00.088.236.926.926 0 00.361.35 1.457 1.457 0 00.368.148c.04.006.08.006.12 0 .178-.046.353-.104.523-.174a.988.988 0 01.292-.05c.099 0 .197.015.292.044.18.05.365.08.552.086.175.01.35-.032.501-.12a.69.69 0 00.18-.17.514.514 0 00.099-.215.742.742 0 00-.084-.476.896.896 0 00-.332-.36.544.544 0 00-.218-.077h-.275c-.194 0-.379-.023-.57-.043a8.665 8.665 0 00-1.14-.095zm0-.024c.388 0 .76-.025 1.14-.052a11.7 11.7 0 01.574-.03h.296c.113.01.222.044.32.1.187.11.336.274.428.47.1.196.128.42.08.636a.72.72 0 01-.153.292.82.82 0 01-.25.195c-.188.09-.4.12-.606.084a3.359 3.359 0 01-.566-.138.742.742 0 00-.536 0 2.152 2.152 0 00-.255.119 1.33 1.33 0 01-.274.119.524.524 0 01-.163.017 1.126 1.126 0 01-.154-.025 1.403 1.403 0 01-.288-.092.974.974 0 01-.455-.425.897.897 0 01-.072-.614.672.672 0 01.152-.275.947.947 0 01.235-.186c.17-.092.354-.158.545-.195h.002z" fill="#000"/><path opacity=".1" d="M17.111 11.331c-.517-.148-.99-.34-1.036-.056-.076.46.465.727.828.803.364.077.68-.39 1.227-.228s1.09.248 1.41-.22c.319-.468.161-.792-.302-.5-.462.293-1.615.348-2.127.201z" fill="#000"/><path d="M17.818 11.07c.583-.014 1.048-.33 1.039-.703-.01-.373-.49-.664-1.073-.65-.582.015-1.047.33-1.038.703.01.374.49.665 1.072.65z" fill="#000"/><path d="M11.473 15.554s-.73-1.854-1.24-2.37c-.315-.317-1.212-.264-1.083.473.169.975.838 2.315.997 2.65" fill="#CCC7BA"/><path d="M11.472 15.56c-.28-.525-.54-1.056-.83-1.561a8.977 8.977 0 00-.224-.375 2.506 2.506 0 00-.245-.339.665.665 0 00-.7-.134.373.373 0 00-.227.26.573.573 0 00-.012.196c0 .066.023.14.035.21.06.288.138.57.235.847.193.559.414 1.107.663 1.642l-.021.01a17.183 17.183 0 01-.753-1.613 6.837 6.837 0 01-.274-.854c-.015-.076-.035-.145-.046-.225a.74.74 0 010-.25.556.556 0 01.317-.395.877.877 0 01.49-.07.889.889 0 01.357.128.596.596 0 01.101.086c.204.23.373.489.504.767a10.057 10.057 0 01.647 1.666l-.017.003z" fill="#000"/><path d="M25.526 15.704s.83 1.812.85 2.535c.011.447-.646 1.061-1.09.459-.583-.802-1.088-2.208-1.218-2.555" fill="#CCC7BA"/><path d="M25.536 15.699a10.033 10.033 0 01.752 1.62c.107.288.172.588.195.894a.6.6 0 010 .133.765.765 0 01-.04.119.895.895 0 01-.12.22.879.879 0 01-.389.306.553.553 0 01-.504-.045.736.736 0 01-.182-.167c-.05-.065-.088-.127-.13-.195a6.84 6.84 0 01-.426-.78 17.204 17.204 0 01-.642-1.66h.022c.213.55.456 1.09.725 1.617.132.26.282.513.447.754.043.057.086.121.128.172.042.05.09.092.146.125a.371.371 0 00.346.015.666.666 0 00.39-.6 2.524 2.524 0 00-.077-.414c-.035-.14-.074-.28-.114-.42-.168-.56-.368-1.117-.553-1.68l.026-.014z" fill="#000"/><path opacity=".2" d="M17.764 31.336c.066.798.093 1.595.11 2.395.018.8 0 1.597-.017 2.395l-.029 2.395-.04 2.395h-.024l-.053-2.395-.04-2.395c-.012-.798-.045-1.597-.03-2.395a41.06 41.06 0 01.1-2.395h.023zm-7.587-1.408c-.158.96-.354 1.91-.558 2.86-.205.95-.455 1.886-.685 2.83l-.696 2.826-.708 2.824h-.023l.616-2.846.628-2.85c.21-.947.403-1.899.64-2.839s.48-1.88.764-2.81l.022.006zm14.961-1.232c.064.273.118.548.178.823l.166.825c.109.55.21 1.102.309 1.654.194 1.104.354 2.215.525 3.315l.517 3.335.502 3.327h-.024l-.593-3.315-.583-3.316c-.194-1.103-.402-2.207-.572-3.315a94.527 94.527 0 01-.239-1.666l-.109-.834c-.03-.28-.068-.558-.095-.837l.018.004z" fill="#000"/><path d="M14.804 18.54a.83.83 0 00.829-.83.83.83 0 10-1.657 0c0 .459.37.83.828.83zm2.121 0a.83.83 0 00.828-.83.83.83 0 00-.828-.831.83.83 0 00-.829.83c0 .46.371.832.829.832z" fill="#0B2A35"/><path d="M19.044 18.54a.83.83 0 00.829-.83.83.83 0 00-.829-.831.83.83 0 00-.828.83c0 .46.37.832.828.832zm2.121 0a.83.83 0 00.828-.83.83.83 0 00-.828-.831.83.83 0 00-.828.83c0 .46.37.832.828.832z" fill="#FF5F00"/><path d="M14.804 20.671a.83.83 0 00.829-.83.83.83 0 10-1.657 0c0 .458.37.83.828.83zm2.12 0a.83.83 0 00.829-.83.83.83 0 10-1.657 0c0 .458.37.83.828.83z" fill="#0B2A35"/><path d="M19.045 20.671a.83.83 0 00.828-.83.83.83 0 10-1.657 0c0 .458.371.83.829.83zm2.12 0a.83.83 0 00.828-.83.83.83 0 10-1.656 0c0 .458.37.83.828.83z" fill="#FF5F00"/><path d="M14.804 22.797a.83.83 0 00.829-.83.83.83 0 10-1.657 0c0 .458.37.83.828.83zm2.121 0a.83.83 0 00.828-.83.83.83 0 00-.828-.831.83.83 0 00-.829.83c0 .46.371.831.829.831zm2.119 0a.83.83 0 00.829-.83.83.83 0 00-.829-.831.83.83 0 00-.828.83c0 .46.37.831.828.831zm2.121 0a.83.83 0 00.828-.83.83.83 0 00-.828-.831.83.83 0 00-.828.83c0 .46.37.831.828.831zm-6.361 2.125a.83.83 0 00.829-.83.83.83 0 10-1.657 0c0 .458.37.83.828.83zm2.121 0a.83.83 0 00.828-.83.83.83 0 10-1.657 0c0 .458.371.83.829.83zm2.119 0a.83.83 0 00.829-.83.83.83 0 10-1.657 0c0 .458.37.83.828.83zm2.121 0a.83.83 0 00.828-.83.83.83 0 10-1.656 0c0 .458.37.83.828.83z" fill="#0B2A35"/><path d="M21.436 6.123a.234.234 0 100-.467.234.234 0 000 .467zm-6.858.199a.234.234 0 100-.467.234.234 0 000 .467z" fill="#fff"/></svg>