<svg width="195" height="48" viewBox="0 0 195 48" fill="none" xmlns="http://www.w3.org/2000/svg"><g clip-path="url(#clip0)"><path d="M42.364 30.668h-.105c-1.654 0-3.404-1.773-3.404-3.453v-.105H38.6v.105c0 1.677-1.75 3.453-3.407 3.453h-.104v.259h.104c1.654 0 3.407 1.773 3.407 3.453v.105h.255v-.105c0-1.677 1.75-3.453 3.404-3.453h.105v-.259zM13.272 8.556h-.104c-1.654 0-3.404-1.774-3.404-3.453V5h-.256v.106c0 1.676-1.75 3.452-3.406 3.452H6v.26h.104c1.655 0 3.407 1.773 3.407 3.452v.106h.256v-.112c0-1.676 1.75-3.453 3.404-3.453h.104v-.255h-.003z" fill="#1EC1CB"/><path d="M13.272 15.928h-.104c-1.654 0-3.404-1.773-3.404-3.452v-.106h-.256v.106c0 1.676-1.75 3.452-3.406 3.452H6v.26h.104c1.655 0 3.407 1.773 3.407 3.452v.106h.256v-.106c0-1.677 1.75-3.453 3.404-3.453h.104v-.259h-.003z" fill="#1EC1CB"/><path d="M20.544 15.928h-.104c-1.654 0-3.404-1.773-3.404-3.452v-.106h-.255v.106c0 1.676-1.75 3.452-3.407 3.452h-.105v.26h.105c1.654 0 3.407 1.773 3.407 3.452v.106h.255v-.106c0-1.677 1.75-3.453 3.404-3.453h.104v-.259zm-7.272 7.37h-.104c-1.654 0-3.404-1.773-3.404-3.452v-.106h-.256v.106c0 1.676-1.75 3.452-3.406 3.452H6v.259h.104c1.655 0 3.407 1.773 3.407 3.453v.105h.256v-.105c0-1.677 1.75-3.453 3.404-3.453h.104v-.259h-.003z" fill="#1EC1CB"/><path d="M20.544 23.298h-.104c-1.654 0-3.404-1.773-3.404-3.452v-.106h-.255v.106c0 1.676-1.75 3.452-3.407 3.452h-.105v.259h.105c1.654 0 3.407 1.773 3.407 3.453v.105h.255v-.105c0-1.677 1.75-3.453 3.404-3.453h.104v-.259zm7.276 0h-.105c-1.654 0-3.404-1.773-3.404-3.452v-.106h-.255v.106c0 1.676-1.75 3.452-3.407 3.452h-.105v.259h.105c1.654 0 3.407 1.773 3.407 3.453v.105h.255v-.105c0-1.677 1.75-3.453 3.404-3.453h.104v-.259zm-14.548 7.37h-.104c-1.654 0-3.404-1.773-3.404-3.453v-.105h-.256v.105c0 1.677-1.75 3.453-3.406 3.453H6v.259h.104c1.655 0 3.407 1.773 3.407 3.453v.105h.256v-.105c0-1.677 1.75-3.453 3.404-3.453h.104v-.259h-.003z" fill="#1EC1CB"/><path d="M20.544 30.668h-.104c-1.654 0-3.404-1.773-3.404-3.453v-.105h-.255v.105c0 1.677-1.75 3.453-3.407 3.453h-.105v.259h.105c1.654 0 3.407 1.773 3.407 3.453v.105h.255v-.105c0-1.677 1.75-3.453 3.404-3.453h.104v-.259zm14.548-14.74h-.105c-1.654 0-3.404-1.773-3.404-3.452v-.106h-.255v.106c0 1.676-1.75 3.452-3.407 3.452h-.104v.26h.104c1.654 0 3.407 1.773 3.407 3.452v.106h.255v-.106c0-1.677 1.75-3.453 3.404-3.453h.105v-.259z" fill="#1EC1CB"/><path d="M35.092 23.298h-.105c-1.654 0-3.404-1.773-3.404-3.452v-.106h-.255v.106c0 1.676-1.75 3.452-3.407 3.452h-.104v.259h.104c1.654 0 3.407 1.773 3.407 3.453v.105h.255v-.105c0-1.677 1.75-3.453 3.404-3.453h.105v-.259z" fill="#1EC1CB"/><path d="M35.092 30.668h-.105c-1.654 0-3.404-1.773-3.404-3.453v-.105h-.255v.105c0 1.677-1.75 3.453-3.407 3.453h-.104v.259h.104c1.654 0 3.407 1.773 3.407 3.453v.105h.255v-.105c0-1.677 1.75-3.453 3.404-3.453h.105v-.259zm7.272-14.74h-.105c-1.654 0-3.404-1.773-3.404-3.452v-.106H38.6v.106c0 1.676-1.75 3.452-3.407 3.452h-.104v.26h.104c1.654 0 3.407 1.773 3.407 3.452v.106h.255v-.106c0-1.677 1.75-3.453 3.404-3.453h.105v-.259z" fill="#1EC1CB"/><path d="M42.364 8.556h-.105c-1.654 0-3.404-1.774-3.404-3.453V5H38.6v.106c0 1.676-1.75 3.452-3.407 3.452h-.104v.26h.104c1.654 0 3.407 1.773 3.407 3.452v.106h.255v-.112c0-1.676 1.75-3.453 3.404-3.453h.105v-.255zm0 14.742h-.105c-1.654 0-3.404-1.773-3.404-3.452v-.106H38.6v.106c0 1.676-1.75 3.452-3.407 3.452h-.104v.259h.104c1.654 0 3.407 1.773 3.407 3.453v.105h.255v-.105c0-1.677 1.75-3.453 3.404-3.453h.105v-.259zm0 14.74h-.105c-1.654 0-3.404-1.773-3.404-3.453v-.105H38.6v.105c0 1.677-1.75 3.453-3.407 3.453h-.104v.259h.104c1.654 0 3.407 1.773 3.407 3.452v.106h.255v-.106c0-1.676 1.75-3.452 3.404-3.452h.105v-.259zm-29.092 0h-.104c-1.654 0-3.404-1.773-3.404-3.453v-.105h-.256v.105c0 1.677-1.75 3.453-3.406 3.453H6v.259h.104c1.655 0 3.407 1.773 3.407 3.452v.106h.256v-.106c0-1.676 1.75-3.452 3.404-3.452h.104v-.259h-.003z" fill="#1EC1CB"/><path d="M98.167 8.063h-8.451V6.025h11.989v.85l-8.451 11.979h8.451v2.038h-11.99v-.85l8.452-11.979zm76.668 4.436c-3.163-.686-3.742-1.425-3.742-2.674 0-1.264 1.176-2.149 2.862-2.149 1.474 0 2.751.487 4.021 1.536l.159.135 1.187-1.594-.151-.123c-1.58-1.287-3.126-1.834-5.175-1.834-2.85 0-4.921 1.754-4.921 4.217 0 2.739 1.992 3.742 4.982 4.401 3.023.648 3.579 1.372 3.579 2.613 0 1.34-1.236 2.275-3.005 2.275-1.848 0-3.235-.582-4.793-2.007l-.151-.142-1.262 1.517.143.13c1.796 1.624 3.705 2.383 6.006 2.383 3.005 0 5.107-1.778 5.107-4.363-.008-2.28-1.452-3.57-4.846-4.321zm-27.312 3.934c-1.021 1.781-2.899 2.995-5.073 2.995-3.243 0-5.885-2.673-5.885-5.964 0-3.29 2.639-5.964 5.885-5.964 2.174 0 4.052 1.214 5.073 2.996l1.716-1.004c-1.365-2.383-3.878-4.007-6.789-4.007-4.342 0-7.873 3.578-7.873 7.98 0 4.4 3.531 7.978 7.873 7.978 2.907 0 5.424-1.624 6.789-4.007l-1.716-1.003zM72.25 20.88h2.196l5.05-12 5.053 12h2.196v-.004L80.5 6.033h-2.986s.88.222.204 1.839l-5.47 13.008zm79.313 0h2.196l5.05-12 5.054 12h2.196v-.004l-6.244-14.843h-2.986s.88.222.204 1.839l-5.47 13.008zM53.853 6.033c.443.169.794.56.9 1.061.099.383.151 1.05.151 1.996v11.786h2.283v-6.473h8.422v6.473h2.283V6.036h-2.283v6.455h-8.422V6.037l-3.333-.004zm52.49 0c.442.169.793.56.899 1.061.099.383.152 1.057.152 2.007v11.775h9.638V18.87h-7.356v-4.474h6.936v-1.892h-6.936V8.052h7.344V6.037l-10.677-.004zm16.09.012c.442.168.794.559.9 1.06.098.384.151 1.058.151 2.008v11.763h8.943v-2h-6.66V6.037l-3.334.009zm67.661 14.835V8.013H195V6.037h-12.159v1.976h4.925v9.799c0 .95-.049 1.624-.152 2.007a1.446 1.446 0 01-.899 1.061h3.379z" fill="#141414"/><path d="M55.398 36.367V41h-.96V29.625h3.874c1.183 0 2.115.302 2.797.906.688.604 1.032 1.435 1.032 2.492 0 1.068-.331 1.894-.993 2.477-.656.578-1.609.867-2.859.867H55.4zm0-.812h2.914c.933 0 1.644-.222 2.133-.664.49-.443.735-1.06.735-1.852 0-.786-.245-1.411-.735-1.875-.484-.469-1.174-.708-2.07-.719h-2.977v5.11zm9.868 4.633h5.617V41h-6.586V29.625h.969v10.563zm13.765-2.376h-5.164L72.695 41h-1.007l4.304-11.375h.914L81.211 41h-1l-1.18-3.188zm-4.867-.82h4.563l-2.282-6.195-2.28 6.195zm15.43-6.547h-3.899V41h-.96V30.445h-3.891v-.82h8.75v.82zm8.11 5.242h-5.306V41h-.96V29.625h7.046v.82h-6.086v4.422h5.305v.82zm11.14.243c0 1.047-.183 1.966-.547 2.758-.359.791-.875 1.4-1.547 1.828-.672.427-1.448.64-2.328.64-1.328 0-2.401-.474-3.219-1.422-.818-.953-1.226-2.237-1.226-3.851V34.71c0-1.036.182-1.953.546-2.75.37-.802.891-1.417 1.563-1.844.672-.432 1.445-.648 2.32-.648.875 0 1.646.21 2.313.633.672.421 1.19 1.018 1.554 1.789.365.77.555 1.664.571 2.68v1.359zm-.961-1.235c0-1.37-.31-2.442-.93-3.218-.62-.776-1.469-1.165-2.547-1.165-1.057 0-1.901.391-2.531 1.172-.625.776-.937 1.862-.937 3.258v1.188c0 1.349.312 2.419.937 3.21.625.787 1.474 1.18 2.547 1.18 1.088 0 1.937-.388 2.547-1.164.609-.781.914-1.867.914-3.258v-1.203zm7.633 1.57h-3.305V41h-.969V29.625h3.696c1.213 0 2.161.294 2.843.883.683.588 1.024 1.411 1.024 2.469 0 .729-.214 1.372-.641 1.93-.427.557-1 .942-1.719 1.156l2.844 4.835V41h-1.023l-2.75-4.734zm-3.305-.82h2.945c.808 0 1.456-.229 1.946-.687.489-.459.734-1.052.734-1.781 0-.802-.255-1.425-.766-1.868-.51-.442-1.226-.664-2.148-.664h-2.711v5zm10.484-5.82l4.196 10.04 4.211-10.04h1.281V41h-.961v-4.953l.078-5.078L127.266 41h-.743l-4.218-9.992.078 5.008V41h-.961V29.625h1.273z" fill="#000"/></g><defs><clipPath id="clip0"><path fill="#fff" d="M0 0h195v48H0z"/></clipPath></defs></svg>