<svg width="195" height="48" viewBox="0 0 195 48" fill="none" xmlns="http://www.w3.org/2000/svg"><g clip-path="url(#clip0)"><path d="M9.72 12.44a3.72 3.72 0 100-7.44 3.72 3.72 0 000 7.44zm9.52 0a3.72 3.72 0 100-7.44 3.72 3.72 0 000 7.44z" fill="#0B2A35"/><path d="M28.76 12.44a3.72 3.72 0 100-7.44 3.72 3.72 0 000 7.44zm9.52 0a3.72 3.72 0 100-7.44 3.72 3.72 0 000 7.44z" fill="#1EC1CB"/><path d="M9.72 21.96a3.72 3.72 0 100-7.44 3.72 3.72 0 000 7.44zm9.52 0a3.72 3.72 0 100-7.44 3.72 3.72 0 000 7.44z" fill="#0B2A35"/><path d="M28.76 21.96a3.72 3.72 0 100-7.44 3.72 3.72 0 000 7.44zm9.52 0a3.72 3.72 0 100-7.44 3.72 3.72 0 000 7.44z" fill="#1EC1CB"/><path d="M9.72 31.48a3.72 3.72 0 100-7.44 3.72 3.72 0 000 7.44zm9.52 0a3.72 3.72 0 100-7.44 3.72 3.72 0 000 7.44zm9.52 0a3.72 3.72 0 100-7.44 3.72 3.72 0 000 7.44zm9.52 0a3.72 3.72 0 100-7.44 3.72 3.72 0 000 7.44zM9.72 41a3.72 3.72 0 100-7.44 3.72 3.72 0 000 7.44zm9.52 0a3.72 3.72 0 100-7.44 3.72 3.72 0 000 7.44zm9.52 0a3.72 3.72 0 100-7.44 3.72 3.72 0 000 7.44zm9.52 0a3.72 3.72 0 100-7.44 3.72 3.72 0 000 7.44z" fill="#0B2A35"/><path d="M98.167 8.063h-8.451V6.025h11.989v.85l-8.451 11.979h8.451v2.038h-11.99v-.85l8.452-11.979zm76.668 4.436c-3.163-.686-3.742-1.425-3.742-2.674 0-1.264 1.176-2.149 2.861-2.149 1.475 0 2.752.487 4.022 1.536l.159.135 1.187-1.594-.152-.123c-1.579-1.287-3.125-1.834-5.174-1.834-2.85 0-4.921 1.754-4.921 4.217 0 2.739 1.992 3.742 4.982 4.401 3.023.648 3.579 1.372 3.579 2.613 0 1.34-1.236 2.275-3.005 2.275-1.848 0-3.235-.582-4.793-2.007l-.151-.142-1.262 1.517.143.13c1.796 1.624 3.704 2.383 6.006 2.383 3.005 0 5.107-1.778 5.107-4.363-.008-2.28-1.452-3.57-4.846-4.321zm-27.312 3.934c-1.021 1.781-2.899 2.995-5.073 2.995-3.243 0-5.885-2.673-5.885-5.964 0-3.29 2.639-5.964 5.885-5.964 2.174 0 4.052 1.214 5.073 2.996l1.716-1.004c-1.365-2.383-3.878-4.007-6.789-4.007-4.342 0-7.873 3.578-7.873 7.98 0 4.4 3.531 7.978 7.873 7.978 2.907 0 5.424-1.624 6.789-4.007l-1.716-1.003zM72.25 20.88h2.195l5.05-12 5.054 12h2.196v-.004L80.5 6.033h-2.986s.88.222.204 1.839l-5.47 13.008zm79.313 0h2.196l5.05-12 5.054 12h2.196v-.004l-6.244-14.843h-2.986s.88.222.204 1.839l-5.47 13.008zM53.853 6.033c.443.169.794.56.9 1.061.098.383.151 1.05.151 1.996v11.786h2.283v-6.473h8.422v6.473h2.282V6.036H65.61v6.455h-8.422V6.037l-3.333-.004zm52.49 0c.442.169.793.56.899 1.061.099.383.151 1.057.151 2.007v11.775h9.639V18.87h-7.356v-4.474h6.936v-1.892h-6.936V8.052h7.344V6.037l-10.677-.004zm16.09.012c.442.168.794.559.9 1.06.098.384.151 1.058.151 2.008v11.763h8.943v-2h-6.66V6.037l-3.334.009zm67.661 14.835V8.013H195V6.037h-12.159v1.976h4.925v9.799c0 .95-.05 1.624-.152 2.007a1.446 1.446 0 01-.899 1.061h3.379z" fill="#141414"/><path d="M55.404 41.428h-.96V30.054h.96v11.375zm4.367-11.374l4.196 10.039 4.21-10.04h1.282v11.375h-.961v-4.953l.078-5.078-4.234 10.032h-.743l-4.218-9.993.078 5.008v4.984h-.961V30.054h1.273zm12.57 11.375V30.053h3.18c.933 0 1.769.214 2.508.641a4.352 4.352 0 011.727 1.82c.416.792.625 1.693.625 2.703v1.047c0 1.016-.206 1.917-.618 2.703a4.384 4.384 0 01-1.742 1.82c-.745.428-1.601.642-2.57.642h-3.11zm.962-10.555v9.742h2.156c1.198 0 2.159-.396 2.883-1.188.724-.796 1.086-1.872 1.086-3.226v-1c0-1.307-.357-2.354-1.07-3.14-.714-.787-1.654-1.183-2.821-1.188h-2.234zm17.734 9.203c-.333.474-.857.844-1.57 1.11-.709.265-1.503.398-2.383.398-.89 0-1.683-.214-2.375-.64-.693-.428-1.23-1.032-1.61-1.813-.38-.782-.573-1.677-.578-2.688v-1.437c0-1.578.399-2.823 1.196-3.735.796-.916 1.867-1.375 3.21-1.375 1.172 0 2.115.3 2.829.899.713.593 1.138 1.414 1.273 2.46h-.96c-.141-.833-.483-1.463-1.024-1.89-.537-.432-1.24-.648-2.11-.648-1.062 0-1.903.377-2.523 1.132-.62.756-.93 1.82-.93 3.196v1.343c0 .865.146 1.63.438 2.297.297.662.718 1.175 1.265 1.54.552.364 1.185.546 1.899.546.828 0 1.539-.13 2.133-.39.385-.172.671-.373.859-.602v-2.938h-3.055v-.812h4.016v4.047z" fill="#000"/></g><defs><clipPath id="clip0"><path fill="#fff" d="M0 0h195v48H0z"/></clipPath></defs></svg>