<svg width="195" height="48" viewBox="0 0 195 48" fill="none" xmlns="http://www.w3.org/2000/svg"><g clip-path="url(#clip0)"><path d="M21.108 17.923c.15-.053.3-.098.451-.136 0-.308-.037-.61-.045-.918a22.249 22.249 0 01.67-6.197l.151-.558a10.587 10.587 0 00-3.6-2.793c-.684.183-1.355.412-2.01.685l.588 1.423 3.795 8.494zm-8.742-5.565l6.972 6.611c.12-.105.244-.205.37-.3a39.408 39.408 0 01-.392-.814 22.305 22.305 0 01-1.762-5.986l-.076-.565a10.587 10.587 0 00-4.382-1.205 16.2 16.2 0 00-1.566 1.431l.873.873-.037-.045zm-3.223 4.82l8.945 3.44c.07-.145.146-.286.226-.421-.218-.196-.444-.392-.655-.595a22.328 22.328 0 01-3.908-4.864l-.279-.475a10.585 10.585 0 00-4.518.558c-.36.613-.68 1.25-.956 1.905l1.197.497-.052-.046zm-1.13 5.7l9.54-.241c0-.166.016-.327.046-.482-.279-.098-.55-.189-.821-.294a22.327 22.327 0 01-5.467-3.012l-.436-.331a10.587 10.587 0 00-3.984 2.259 16.18 16.18 0 00-.143 2.116h1.356l-.09-.015z" fill="#0B2A35"/><path d="M33.412 12.396l-6.642 7.002c.1.111.196.226.287.347.293-.143.587-.286.888-.422a22.206 22.206 0 015.971-1.77l.558-.075a10.587 10.587 0 001.22-4.412A16.266 16.266 0 0034.3 11.53l-.933.873.045-.007z" fill="#1EC1CB"/><path d="M23.149 17.644l.459.045a22.189 22.189 0 013.328-6.348l.354-.466a10.588 10.588 0 00-2.259-3.968 16.183 16.183 0 00-2.116-.144v1.755l.234 9.126z" fill="#0B2A35"/><path d="M25.137 18.164c.135.065.268.138.399.218.21-.24.421-.482.647-.715a22.156 22.156 0 014.857-3.878l.497-.286a10.588 10.588 0 00-.557-4.518c-.613-.37-1.25-.7-1.905-.986l-.603 1.453-3.335 8.712z" fill="#1EC1CB"/><path d="M36.642 17.23l-8.84 3.923c.053.136.09.279.128.43.331 0 .663-.038.994-.054a22.01 22.01 0 016.197.686l.527.143a10.587 10.587 0 002.824-3.622 15.997 15.997 0 00-.685-2.01l-1.228.504h.083zM24.669 27.84l-.436.143c0 .316.037.632.052.948a22.222 22.222 0 01-.707 6.19l-.15.557a10.588 10.588 0 003.59 2.794 15.992 15.992 0 002.011-.686l-.55-1.408-3.81-8.538zm8.765 5.602l-7.033-6.672c-.113.098-.218.196-.338.286.143.294.286.588.421.889a22.294 22.294 0 011.755 5.986l.075.565a10.587 10.587 0 004.382 1.205c.565-.432 1.1-.9 1.604-1.4l-.873-.874.007.015zm3.223-4.827l-9.036-3.486c-.06.135-.128.263-.203.391.248.219.497.437.753.67a22.333 22.333 0 013.908 4.865l.279.474c1.528.144 3.07-.046 4.518-.557.358-.614.674-1.25.948-1.905l-1.197-.497.03.045zm1.04-5.715h.09l-9.691.263c0 .151 0 .294-.038.437.316.105.633.218.941.339a22.323 22.323 0 015.467 3.012l.437.331a10.587 10.587 0 003.983-2.259c.094-.701.142-1.408.143-2.116h-1.333V22.9zM20.64 27.689c-.143-.068-.286-.143-.43-.218-.195.225-.39.444-.602.662a22.173 22.173 0 01-4.856 3.893l-.497.286a10.59 10.59 0 00.557 4.518c.613.358 1.25.675 1.905.949l.61-1.4 3.313-8.69zm-8.253 5.677l6.581-6.935a7.261 7.261 0 01-.316-.369 40.43 40.43 0 01-.79.377 22.198 22.198 0 01-5.98 1.74l-.556.075a10.586 10.586 0 00-1.228 4.442c.441.566.92 1.102 1.43 1.604l.905-.903-.046-.03zm-3.23-4.796l8.727-3.878a4.605 4.605 0 01-.143-.467l-.866.045h-.61a21.737 21.737 0 01-5.587-.692l-.527-.143a10.587 10.587 0 00-2.824 3.621c.184.685.413 1.357.685 2.01l1.228-.504-.083.008zm13.493-.407h-.466c-.098.294-.196.58-.31.866a22.18 22.18 0 01-3.011 5.46l-.354.466a10.587 10.587 0 002.259 3.968c.702.094 1.408.142 2.116.143v-1.792l-.234-9.11zm.19-1.34a3.923 3.923 0 100-7.846 3.923 3.923 0 000 7.846z" fill="#0B2A35"/><path d="M22.9 41.8a18.9 18.9 0 1118.9-18.9 18.923 18.923 0 01-18.9 18.9zm0-36.573A17.673 17.673 0 1040.573 22.9 17.688 17.688 0 0022.9 5.227z" fill="#0B2A35"/><path d="M98.167 8.063h-8.451V6.025h11.989v.85l-8.451 11.979h8.451v2.038h-11.99v-.85l8.452-11.979zm76.668 4.436c-3.163-.686-3.742-1.425-3.742-2.674 0-1.264 1.176-2.149 2.861-2.149 1.475 0 2.752.487 4.022 1.536l.159.135 1.187-1.594-.152-.123c-1.579-1.287-3.125-1.834-5.174-1.834-2.85 0-4.921 1.754-4.921 4.217 0 2.739 1.992 3.742 4.982 4.401 3.023.648 3.579 1.372 3.579 2.613 0 1.34-1.236 2.275-3.005 2.275-1.848 0-3.235-.582-4.793-2.007l-.151-.142-1.262 1.517.143.13c1.796 1.624 3.704 2.383 6.006 2.383 3.005 0 5.107-1.778 5.107-4.363-.008-2.28-1.452-3.57-4.846-4.321zm-27.312 3.934c-1.021 1.781-2.899 2.995-5.073 2.995-3.243 0-5.885-2.673-5.885-5.964 0-3.29 2.639-5.964 5.885-5.964 2.174 0 4.052 1.214 5.073 2.996l1.716-1.004c-1.365-2.383-3.878-4.007-6.789-4.007-4.342 0-7.873 3.578-7.873 7.98 0 4.4 3.531 7.978 7.873 7.978 2.907 0 5.424-1.624 6.789-4.007l-1.716-1.003zM72.25 20.88h2.195l5.05-12 5.054 12h2.196v-.004L80.5 6.033h-2.986s.88.222.204 1.839l-5.47 13.008zm79.313 0h2.196l5.05-12 5.054 12h2.196v-.004l-6.244-14.843h-2.986s.88.222.204 1.839l-5.47 13.008zM53.853 6.033c.443.169.794.56.9 1.061.098.383.151 1.05.151 1.996v11.786h2.283v-6.473h8.422v6.473h2.282V6.036H65.61v6.455h-8.422V6.037l-3.333-.004zm52.49 0c.442.169.793.56.899 1.061.099.383.151 1.057.151 2.007v11.775h9.639V18.87h-7.356v-4.474h6.936v-1.892h-6.936V8.052h7.344V6.037l-10.677-.004zm16.09.012c.442.168.794.559.9 1.06.098.384.151 1.058.151 2.008v11.763h8.943v-2h-6.66V6.037l-3.334.009zm67.661 14.835V8.013H195V6.037h-12.159v1.976h4.925v9.799c0 .95-.05 1.624-.152 2.007a1.446 1.446 0 01-.899 1.061h3.379z" fill="#141414"/><path d="M59.256 30.053h.968v7.993c0 1.078-.312 1.937-.937 2.578-.62.64-1.453.96-2.5.96-1.104 0-1.953-.288-2.547-.867-.594-.578-.89-1.385-.89-2.421h.96c0 .823.216 1.442.649 1.859.432.411 1.041.617 1.828.617.724 0 1.313-.24 1.766-.718.458-.48.692-1.13.703-1.954v-8.047zm10.07 5.922h-5.32v4.641h6.117v.813h-7.078V30.053h7.039v.82h-6.078v4.29h5.32v.812zm10.703-5.101h-3.898v10.555h-.961V30.873h-3.89v-.82h8.75v.82z" fill="#000"/></g><defs><clipPath id="clip0"><path fill="#fff" d="M0 0h195v48H0z"/></clipPath></defs></svg>