<svg xmlns="http://www.w3.org/2000/svg" viewBox="0 0 64 64" width="64" height="64"><path d="M57 62H7c-2.75 0-5-2.25-5-5V7c0-2.75 2.25-5 5-5h50c2.75 0 5 2.25 5 5v50c0 2.75-2.25 5-5 5zm0 0" fill="#fff"/><path d="M2 53.5A1.47 1.47 0 01.5 52V20.5c0-.852.648-1.5 1.5-1.5s1.5.648 1.5 1.5V52c0 .852-.648 1.5-1.5 1.5zm0 0" fill="#444b54"/><path d="M57 63.5H26c-.852 0-1.5-.648-1.5-1.5s.648-1.5 1.5-1.5h31c1.95 0 3.5-1.55 3.5-3.5V7c0-1.95-1.55-3.5-3.5-3.5H7A3.48 3.48 0 003.5 7v5.5h52c.852 0 1.5.648 1.5 1.5s-.648 1.5-1.5 1.5H2A1.47 1.47 0 01.5 14V7C.5 3.398 3.398.5 7 .5h50c3.602 0 6.5 2.898 6.5 6.5v50c0 3.602-2.898 6.5-6.5 6.5zm0 0" fill="#444b54"/><path d="M9.5 8a1.5 1.5 0 11-3 0 1.5 1.5 0 013 0zm5 0a1.5 1.5 0 11-3 0 1.5 1.5 0 013 0zm5 0a1.5 1.5 0 11-3 0 1.5 1.5 0 013 0zm0 0" fill="#444b54"/><path d="M32 24.898c-7.7 0-14 6.301-14 14 0 3.25 1.102 6.204 2.95 8.602l-1.848 1.852c-1.653-.801-3.75-.5-5.102.898l-5.648 5.648a4.498 4.498 0 000 6.352c.847.852 2 1.3 3.199 1.3 1.199 0 2.347-.448 3.199-1.3l5.648-5.648c.852-.852 1.301-2 1.301-3.204a4.29 4.29 0 00-.449-1.949l1.8-1.8a13.84 13.84 0 008.95 3.25c7.7 0 14-6.297 14-14 0-7.7-6.3-14-14-14zM18.2 54.45l-5.65 5.653c-.55.546-1.55.546-2.1 0-.598-.602-.598-1.551 0-2.102l5.652-5.648a1.515 1.515 0 011.046-.454c.403 0 .75.153 1.051.454.301.296.45.648.45 1.046 0 .403-.149.75-.45 1.051zM32 49.9c-6.05 0-11-4.95-11-11 0-6.047 4.95-11 11-11s11 4.953 11 11c0 6.05-4.95 11-11 11zm0 0" fill="#2160c0"/></svg>