<svg width="43" height="43" viewBox="0 0 43 43" fill="none" xmlns="http://www.w3.org/2000/svg">
<path d="M39.6 0H3.3C1.5 0 0 1.5 0 3.3V39.6C0 41.4 1.5 42.9 3.3 42.9H39.6C41.4 42.9 42.9 41.4 42.9 39.6V3.3C42.9 1.5 41.5 0 39.6 0ZM32.7 33.5H15.3C12.5 33.5 9.8 32.5 7.6 30.7C4.8 28.4 3.3 25 3.3 21.5C3.3 14.9 8.7 9.5 15.3 9.5C18.4 9.5 21.3 10.7 23.5 12.7C24.4 12.3 25.4 12.1 26.4 12.1C30.7 12.1 34.3 15.5 34.5 19.8C37.4 20.6 39.6 23.3 39.6 26.5C39.7 30.4 36.6 33.5 32.7 33.5Z" fill="#2E7DE1"/>
<path d="M15.3 12.5C17.6 12.5 19.8 13.4 21.5 15L8.80005 27.6C7.20005 25.9 6.30005 23.7 6.30005 21.4C6.30005 16.5 10.3 12.5 15.3 12.5Z" fill="#071B2C"/>
<path d="M26.5 15.2C25.6 15.2 24.7 15.5 23.9 15.9L23.7 16.1L10.7 29.1C12.1 30 13.6999 30.4 15.4 30.4H22L31.5999 20.8V20.2C31.5999 17.5 29.2999 15.2 26.5 15.2Z" fill="#071B2C"/>
<path d="M33.1 22.7C35.1 22.9 36.7001 24.6 36.7001 26.6C36.7001 28.8 34.9 30.5 32.8 30.5H25.3L33.1 22.7Z" fill="#2E7DE1"/>
</svg>
