<?xml version="1.0" encoding="UTF-8"?>
<svg xmlns="http://www.w3.org/2000/svg" xmlns:xlink="http://www.w3.org/1999/xlink" width="24pt" height="24pt" viewBox="10 0 24 24" version="1.1">
<g id="surface40653788">
<path style=" stroke:none;fill-rule:nonzero;fill:rgb(12.941177%,37.64706%,75.294119%);fill-opacity:1;" d="M 17.242188 5.992188 C 16.9375 5.992188 16.660156 6.175781 16.546875 6.460938 C 16.433594 6.742188 16.5 7.066406 16.71875 7.28125 L 20.4375 11 L 1.75 11 C 1.480469 10.996094 1.226562 11.136719 1.089844 11.371094 C 0.957031 11.605469 0.957031 11.894531 1.089844 12.128906 C 1.226562 12.363281 1.480469 12.503906 1.75 12.5 L 20.4375 12.5 L 16.71875 16.21875 C 16.523438 16.40625 16.445312 16.6875 16.511719 16.949219 C 16.582031 17.210938 16.789062 17.417969 17.050781 17.488281 C 17.3125 17.554688 17.59375 17.476562 17.78125 17.28125 L 22.78125 12.28125 C 23.074219 11.988281 23.074219 11.511719 22.78125 11.21875 L 17.78125 6.21875 C 17.640625 6.074219 17.445312 5.992188 17.242188 5.992188 Z M 17.242188 5.992188 "/>
</g>
</svg>
