<svg width="195" height="48" viewBox="0 0 195 48" fill="none" xmlns="http://www.w3.org/2000/svg"><g clip-path="url(#clip0)"><path d="M42.364 30.668h-.105c-1.654 0-3.404-1.773-3.404-3.453v-.105H38.6v.105c0 1.677-1.75 3.453-3.407 3.453h-.104v.259h.104c1.654 0 3.407 1.773 3.407 3.453v.105h.255v-.105c0-1.677 1.75-3.453 3.404-3.453h.105v-.259zM13.272 8.556h-.104c-1.654 0-3.404-1.774-3.404-3.453V5h-.256v.106c0 1.676-1.75 3.452-3.406 3.452H6v.26h.104c1.655 0 3.407 1.773 3.407 3.452v.106h.256v-.112c0-1.676 1.75-3.453 3.404-3.453h.104v-.255h-.003z" fill="#1EC1CB"/><path d="M13.272 15.928h-.104c-1.654 0-3.404-1.773-3.404-3.452v-.106h-.256v.106c0 1.676-1.75 3.452-3.406 3.452H6v.26h.104c1.655 0 3.407 1.773 3.407 3.452v.106h.256v-.106c0-1.677 1.75-3.453 3.404-3.453h.104v-.259h-.003z" fill="#1EC1CB"/><path d="M20.544 15.928h-.104c-1.654 0-3.404-1.773-3.404-3.452v-.106h-.255v.106c0 1.676-1.75 3.452-3.407 3.452h-.105v.26h.105c1.654 0 3.407 1.773 3.407 3.452v.106h.255v-.106c0-1.677 1.75-3.453 3.404-3.453h.104v-.259zm-7.272 7.37h-.104c-1.654 0-3.404-1.773-3.404-3.452v-.106h-.256v.106c0 1.676-1.75 3.452-3.406 3.452H6v.259h.104c1.655 0 3.407 1.773 3.407 3.453v.105h.256v-.105c0-1.677 1.75-3.453 3.404-3.453h.104v-.259h-.003z" fill="#1EC1CB"/><path d="M20.544 23.298h-.104c-1.654 0-3.404-1.773-3.404-3.452v-.106h-.255v.106c0 1.676-1.75 3.452-3.407 3.452h-.105v.259h.105c1.654 0 3.407 1.773 3.407 3.453v.105h.255v-.105c0-1.677 1.75-3.453 3.404-3.453h.104v-.259zm7.276 0h-.105c-1.654 0-3.404-1.773-3.404-3.452v-.106h-.255v.106c0 1.676-1.75 3.452-3.407 3.452h-.105v.259h.105c1.654 0 3.407 1.773 3.407 3.453v.105h.255v-.105c0-1.677 1.75-3.453 3.404-3.453h.104v-.259zm-14.548 7.37h-.104c-1.654 0-3.404-1.773-3.404-3.453v-.105h-.256v.105c0 1.677-1.75 3.453-3.406 3.453H6v.259h.104c1.655 0 3.407 1.773 3.407 3.453v.105h.256v-.105c0-1.677 1.75-3.453 3.404-3.453h.104v-.259h-.003z" fill="#1EC1CB"/><path d="M20.544 30.668h-.104c-1.654 0-3.404-1.773-3.404-3.453v-.105h-.255v.105c0 1.677-1.75 3.453-3.407 3.453h-.105v.259h.105c1.654 0 3.407 1.773 3.407 3.453v.105h.255v-.105c0-1.677 1.75-3.453 3.404-3.453h.104v-.259zm14.548-14.74h-.105c-1.654 0-3.404-1.773-3.404-3.452v-.106h-.255v.106c0 1.676-1.75 3.452-3.407 3.452h-.104v.26h.104c1.654 0 3.407 1.773 3.407 3.452v.106h.255v-.106c0-1.677 1.75-3.453 3.404-3.453h.105v-.259z" fill="#1EC1CB"/><path d="M35.092 23.298h-.105c-1.654 0-3.404-1.773-3.404-3.452v-.106h-.255v.106c0 1.676-1.75 3.452-3.407 3.452h-.104v.259h.104c1.654 0 3.407 1.773 3.407 3.453v.105h.255v-.105c0-1.677 1.75-3.453 3.404-3.453h.105v-.259z" fill="#1EC1CB"/><path d="M35.092 30.668h-.105c-1.654 0-3.404-1.773-3.404-3.453v-.105h-.255v.105c0 1.677-1.75 3.453-3.407 3.453h-.104v.259h.104c1.654 0 3.407 1.773 3.407 3.453v.105h.255v-.105c0-1.677 1.75-3.453 3.404-3.453h.105v-.259zm7.272-14.74h-.105c-1.654 0-3.404-1.773-3.404-3.452v-.106H38.6v.106c0 1.676-1.75 3.452-3.407 3.452h-.104v.26h.104c1.654 0 3.407 1.773 3.407 3.452v.106h.255v-.106c0-1.677 1.75-3.453 3.404-3.453h.105v-.259z" fill="#1EC1CB"/><path d="M42.364 8.556h-.105c-1.654 0-3.404-1.774-3.404-3.453V5H38.6v.106c0 1.676-1.75 3.452-3.407 3.452h-.104v.26h.104c1.654 0 3.407 1.773 3.407 3.452v.106h.255v-.112c0-1.676 1.75-3.453 3.404-3.453h.105v-.255zm0 14.742h-.105c-1.654 0-3.404-1.773-3.404-3.452v-.106H38.6v.106c0 1.676-1.75 3.452-3.407 3.452h-.104v.259h.104c1.654 0 3.407 1.773 3.407 3.453v.105h.255v-.105c0-1.677 1.75-3.453 3.404-3.453h.105v-.259zm0 14.74h-.105c-1.654 0-3.404-1.773-3.404-3.453v-.105H38.6v.105c0 1.677-1.75 3.453-3.407 3.453h-.104v.259h.104c1.654 0 3.407 1.773 3.407 3.452v.106h.255v-.106c0-1.676 1.75-3.452 3.404-3.452h.105v-.259zm-29.092 0h-.104c-1.654 0-3.404-1.773-3.404-3.453v-.105h-.256v.105c0 1.677-1.75 3.453-3.406 3.453H6v.259h.104c1.655 0 3.407 1.773 3.407 3.452v.106h.256v-.106c0-1.676 1.75-3.452 3.404-3.452h.104v-.259h-.003z" fill="#1EC1CB"/><path d="M98.167 8.063h-8.451V6.025h11.989v.85l-8.451 11.979h8.451v2.038h-11.99v-.85l8.452-11.979zm76.668 4.436c-3.163-.686-3.742-1.425-3.742-2.674 0-1.264 1.176-2.149 2.862-2.149 1.474 0 2.751.487 4.021 1.536l.159.135 1.187-1.594-.151-.123c-1.58-1.287-3.126-1.834-5.175-1.834-2.85 0-4.921 1.754-4.921 4.217 0 2.739 1.992 3.742 4.982 4.401 3.023.648 3.579 1.372 3.579 2.613 0 1.34-1.236 2.275-3.005 2.275-1.848 0-3.235-.582-4.793-2.007l-.151-.142-1.262 1.517.143.13c1.796 1.624 3.705 2.383 6.006 2.383 3.005 0 5.107-1.778 5.107-4.363-.008-2.28-1.452-3.57-4.846-4.321zm-27.312 3.934c-1.021 1.781-2.899 2.995-5.073 2.995-3.243 0-5.885-2.673-5.885-5.964 0-3.29 2.639-5.964 5.885-5.964 2.174 0 4.052 1.214 5.073 2.996l1.716-1.004c-1.365-2.383-3.878-4.007-6.789-4.007-4.342 0-7.873 3.578-7.873 7.98 0 4.4 3.531 7.978 7.873 7.978 2.907 0 5.424-1.624 6.789-4.007l-1.716-1.003zM72.25 20.88h2.196l5.05-12 5.053 12h2.196v-.004L80.5 6.033h-2.986s.88.222.204 1.839l-5.47 13.008zm79.313 0h2.196l5.05-12 5.054 12h2.196v-.004l-6.244-14.843h-2.986s.88.222.204 1.839l-5.47 13.008zM53.853 6.033c.443.169.794.56.9 1.061.099.383.151 1.05.151 1.996v11.786h2.283v-6.473h8.422v6.473h2.283V6.036h-2.283v6.455h-8.422V6.037l-3.333-.004zm52.49 0c.442.169.793.56.899 1.061.099.383.152 1.057.152 2.007v11.775h9.638V18.87h-7.356v-4.474h6.936v-1.892h-6.936V8.052h7.344V6.037l-10.677-.004zm16.09.012c.442.168.794.559.9 1.06.098.384.151 1.058.151 2.008v11.763h8.943v-2h-6.66V6.037l-3.334.009zm67.661 14.835V8.013H195V6.037h-12.159v1.976h4.925v9.799c0 .95-.049 1.624-.152 2.007a1.446 1.446 0 01-.899 1.061h3.379z" fill="#141414"/><path d="M62.287 37.882c-.13 1.198-.56 2.114-1.29 2.75-.723.635-1.69.953-2.898.953-.843 0-1.59-.211-2.242-.633-.645-.422-1.145-1.018-1.5-1.79-.354-.775-.534-1.66-.539-2.655V35.03c0-1.01.177-1.906.532-2.688.354-.78.861-1.382 1.523-1.804.667-.427 1.432-.64 2.297-.64 1.218 0 2.18.33 2.883.991.708.657 1.12 1.566 1.234 2.727h-.969c-.24-1.932-1.289-2.898-3.148-2.898-1.032 0-1.854.385-2.469 1.156-.61.77-.914 1.836-.914 3.195v1.39c0 1.313.297 2.36.89 3.141.6.782 1.407 1.172 2.422 1.172 1.006 0 1.764-.24 2.274-.718.51-.485.825-1.209.945-2.172h.969zm3.305 2.734h5.617v.813h-6.586V30.053h.969v10.563zm15.359-4.258c0 1.047-.182 1.966-.547 2.758-.36.792-.875 1.401-1.547 1.828-.672.427-1.448.64-2.328.64-1.328 0-2.4-.473-3.219-1.421-.817-.953-1.226-2.237-1.226-3.852V35.14c0-1.036.182-1.953.547-2.75.37-.802.89-1.416 1.562-1.843.672-.433 1.445-.649 2.32-.649.875 0 1.646.211 2.313.633.672.422 1.19 1.018 1.555 1.79.364.77.554 1.663.57 2.679v1.36zm-.96-1.234c0-1.37-.31-2.443-.93-3.219-.62-.776-1.47-1.164-2.548-1.164-1.057 0-1.9.39-2.53 1.172-.626.776-.938 1.862-.938 3.258v1.187c0 1.35.312 2.42.937 3.211.625.787 1.474 1.18 2.547 1.18 1.089 0 1.938-.388 2.547-1.164.61-.782.914-1.867.914-3.258v-1.203zm11.218-5.07v7.765c-.005.766-.175 1.432-.508 2a3.347 3.347 0 01-1.414 1.313c-.604.302-1.3.453-2.086.453-1.198 0-2.159-.326-2.883-.977-.718-.656-1.09-1.562-1.117-2.719v-7.836h.953v7.696c0 .958.274 1.703.82 2.234.547.526 1.29.79 2.227.79.938 0 1.677-.266 2.219-.798.547-.53.82-1.27.82-2.218v-7.703h.969zm2.68 11.375V30.053h3.18c.931 0 1.767.214 2.507.641.74.422 1.315 1.029 1.727 1.82.416.792.625 1.693.625 2.703v1.047c0 1.016-.206 1.917-.618 2.703a4.381 4.381 0 01-1.742 1.82c-.745.428-1.601.642-2.57.642h-3.11zm.96-10.555v9.742h2.157c1.198 0 2.159-.396 2.882-1.188.725-.796 1.086-1.872 1.086-3.226v-1c0-1.307-.356-2.354-1.07-3.14-.713-.787-1.653-1.183-2.82-1.188H94.85z" fill="#000"/></g><defs><clipPath id="clip0"><path fill="#fff" d="M0 0h195v48H0z"/></clipPath></defs></svg>