<svg width="185" height="21" viewBox="0 0 185 21" fill="none" xmlns="http://www.w3.org/2000/svg"><path d="M3.434 17.296c.19.017.442.035.754.052h1.274c2.201 0 3.84-.555 4.914-1.664 1.092-1.127 1.638-2.695 1.638-4.706 0-2.045-.529-3.614-1.586-4.706C9.371 5.18 7.733 4.634 5.514 4.634c-.97 0-1.664.026-2.08.078v12.584zm12.012-6.318c0 1.56-.243 2.92-.728 4.082a7.768 7.768 0 01-2.08 2.886c-.884.763-1.959 1.335-3.224 1.716-1.248.364-2.635.546-4.16.546-.728 0-1.551-.035-2.47-.104a15.716 15.716 0 01-2.626-.364V2.242c.832-.19 1.716-.312 2.652-.364A45.536 45.536 0 015.306 1.8c1.508 0 2.886.182 4.134.546 1.248.347 2.314.901 3.198 1.664.901.745 1.595 1.699 2.08 2.86.485 1.144.728 2.513.728 4.108zm15.72 2.21c0 1.075-.157 2.054-.469 2.938-.312.884-.754 1.638-1.326 2.262a5.933 5.933 0 01-2.08 1.456c-.797.347-1.681.52-2.652.52-.97 0-1.854-.173-2.652-.52a5.993 5.993 0 01-2.054-1.456c-.572-.624-1.022-1.378-1.352-2.262-.312-.884-.468-1.863-.468-2.938 0-1.075.156-2.045.468-2.912.33-.884.78-1.638 1.352-2.262a5.957 5.957 0 012.08-1.43c.798-.347 1.673-.52 2.626-.52.954 0 1.829.173 2.626.52a5.66 5.66 0 012.08 1.43c.572.624 1.014 1.378 1.326 2.262.33.867.494 1.837.494 2.912zm-3.225 0c0-1.352-.294-2.418-.884-3.198-.572-.797-1.378-1.196-2.418-1.196-1.04 0-1.854.399-2.444 1.196-.572.78-.858 1.846-.858 3.198 0 1.37.286 2.453.858 3.25.59.797 1.404 1.196 2.444 1.196s1.846-.399 2.418-1.196c.59-.797.884-1.88.884-3.25zm5.711.026a8.23 8.23 0 01.468-2.808 6.787 6.787 0 011.326-2.288 6.27 6.27 0 012.132-1.508c.832-.364 1.768-.546 2.808-.546a9.52 9.52 0 013.64.702L43.35 9.34a7.065 7.065 0 00-1.248-.39 6.467 6.467 0 00-1.456-.156c-1.23 0-2.166.39-2.808 1.17-.641.763-.962 1.846-.962 3.25 0 1.352.304 2.427.91 3.224.607.78 1.63 1.17 3.068 1.17.538 0 1.066-.052 1.586-.156.52-.104.971-.234 1.352-.39l.442 2.6c-.346.173-.875.33-1.586.468-.693.139-1.412.208-2.158.208-1.161 0-2.175-.173-3.042-.52-.849-.364-1.56-.858-2.132-1.482a6.388 6.388 0 01-1.248-2.262 9.507 9.507 0 01-.416-2.86zm24.172 6.37c-.607.156-1.395.312-2.366.468-.97.173-2.037.26-3.198.26-1.092 0-2.01-.156-2.756-.468-.728-.312-1.317-.745-1.768-1.3-.433-.555-.745-1.213-.936-1.976-.19-.78-.286-1.63-.286-2.548V6.402h3.146v7.124c0 1.456.208 2.496.624 3.12.433.624 1.179.936 2.236.936.381 0 .78-.017 1.196-.052.433-.035.754-.078.962-.13V6.402h3.146v13.182zm11.752-6.734c0-1.421-.182-2.444-.546-3.068-.347-.641-1.005-.962-1.976-.962a9.28 9.28 0 00-1.144.078 25.29 25.29 0 00-.936.13V20h-3.146V6.844c.607-.173 1.395-.338 2.366-.494a19.998 19.998 0 013.12-.234c.936 0 1.699.121 2.288.364.607.243 1.11.563 1.508.962a6.508 6.508 0 011.716-.858 7.955 7.955 0 011.144-.338 6.08 6.08 0 011.248-.13c1.057 0 1.924.156 2.6.468.694.295 1.23.72 1.612 1.274.399.537.667 1.196.806 1.976.156.763.234 1.603.234 2.522V20h-3.146v-7.15c0-1.421-.173-2.444-.52-3.068-.347-.641-1.014-.962-2.002-.962-.503 0-.98.087-1.43.26-.45.156-.788.312-1.014.468.139.433.234.893.286 1.378.052.485.078 1.005.078 1.56V20h-3.146v-7.15zm13.994.416c0-1.196.174-2.245.52-3.146.364-.901.84-1.647 1.43-2.236a5.632 5.632 0 012.028-1.352 6.127 6.127 0 012.34-.468c1.872 0 3.328.58 4.368 1.742 1.058 1.161 1.586 2.895 1.586 5.2 0 .173-.008.373-.026.598 0 .208-.008.399-.026.572h-8.97c.087 1.092.468 1.941 1.144 2.548.694.59 1.69.884 2.99.884.763 0 1.456-.07 2.08-.208.642-.139 1.144-.286 1.508-.442l.416 2.574a5.805 5.805 0 01-.728.286 9.484 9.484 0 01-1.04.234 12.014 12.014 0 01-2.626.286c-1.196 0-2.236-.173-3.12-.52-.884-.364-1.612-.858-2.184-1.482a6.216 6.216 0 01-1.274-2.236c-.277-.867-.416-1.811-.416-2.834zm9.126-1.404c0-.433-.06-.84-.182-1.222a2.72 2.72 0 00-.546-1.014 2.197 2.197 0 00-.858-.676c-.33-.173-.728-.26-1.196-.26-.485 0-.91.095-1.274.286a2.891 2.891 0 00-.936.702 3.415 3.415 0 00-.572 1.014 5.49 5.49 0 00-.286 1.17h5.85zm6.482-5.018c.606-.173 1.395-.338 2.366-.494.97-.156 2.045-.234 3.224-.234 1.109 0 2.036.156 2.782.468.745.295 1.334.72 1.768 1.274.45.537.762 1.196.936 1.976.19.763.286 1.603.286 2.522V20h-3.146v-7.15c0-.728-.052-1.343-.156-1.846-.087-.52-.243-.936-.468-1.248a1.701 1.701 0 00-.884-.702c-.364-.156-.815-.234-1.352-.234-.399 0-.815.026-1.248.078-.434.052-.754.095-.962.13V20h-3.146V6.844zm15.053-4.03l3.146-.52v4.108h4.836v2.626h-4.836v5.538c0 1.092.173 1.872.52 2.34.346.468.936.702 1.768.702a5.62 5.62 0 001.508-.182c.45-.121.806-.234 1.066-.338l.52 2.496c-.364.156-.841.312-1.43.468-.59.173-1.283.26-2.08.26-.971 0-1.786-.13-2.444-.39-.642-.26-1.153-.633-1.534-1.118-.382-.503-.65-1.1-.806-1.794-.156-.71-.234-1.517-.234-2.418V2.814zm15.807 14.976c.971 0 1.707-.052 2.21-.156V14.15a7.023 7.023 0 00-1.846-.234 7.53 7.53 0 00-1.066.078 3.446 3.446 0 00-.962.286 1.73 1.73 0 00-.676.598c-.173.243-.26.555-.26.936 0 .745.234 1.265.702 1.56.468.277 1.101.416 1.898.416zm-.26-11.726c1.04 0 1.915.13 2.626.39.711.26 1.274.624 1.69 1.092.433.468.737 1.04.91 1.716.191.659.286 1.387.286 2.184v8.242c-.485.104-1.222.225-2.21.364-.971.156-2.071.234-3.302.234-.815 0-1.56-.078-2.236-.234-.676-.156-1.257-.407-1.742-.754a3.719 3.719 0 01-1.118-1.352c-.26-.555-.39-1.24-.39-2.054 0-.78.147-1.439.442-1.976.312-.537.728-.97 1.248-1.3a5.014 5.014 0 011.794-.728 9.802 9.802 0 012.158-.234c.347 0 .711.026 1.092.078.381.035.789.104 1.222.208v-.52c0-.364-.043-.71-.13-1.04a1.988 1.988 0 00-.468-.858 1.964 1.964 0 00-.858-.598c-.347-.139-.789-.208-1.326-.208-.728 0-1.395.052-2.002.156-.607.104-1.101.225-1.482.364l-.39-2.548c.399-.139.979-.277 1.742-.416a13.66 13.66 0 012.444-.208zm9.209-3.25l3.146-.52v4.108h4.836v2.626h-4.836v5.538c0 1.092.173 1.872.52 2.34.346.468.936.702 1.768.702a5.62 5.62 0 001.508-.182c.45-.121.806-.234 1.066-.338l.52 2.496c-.364.156-.841.312-1.43.468-.59.173-1.283.26-2.08.26-.971 0-1.786-.13-2.444-.39-.642-.26-1.153-.633-1.534-1.118-.382-.503-.65-1.1-.806-1.794-.156-.71-.234-1.517-.234-2.418V2.814zM153.182 20h-3.146V6.402h3.146V20zm.338-17.576c0 .59-.191 1.057-.572 1.404-.382.347-.832.52-1.352.52-.538 0-.997-.173-1.378-.52-.382-.347-.572-.815-.572-1.404 0-.607.19-1.083.572-1.43.381-.347.84-.52 1.378-.52.52 0 .97.173 1.352.52.381.347.572.823.572 1.43zm15.973 10.764c0 1.075-.156 2.054-.468 2.938-.312.884-.754 1.638-1.326 2.262a5.93 5.93 0 01-2.08 1.456c-.797.347-1.681.52-2.652.52-.97 0-1.854-.173-2.652-.52a5.996 5.996 0 01-2.054-1.456c-.572-.624-1.022-1.378-1.352-2.262-.312-.884-.468-1.863-.468-2.938 0-1.075.156-2.045.468-2.912.33-.884.78-1.638 1.352-2.262a5.965 5.965 0 012.08-1.43c.798-.347 1.673-.52 2.626-.52.954 0 1.829.173 2.626.52a5.66 5.66 0 012.08 1.43c.572.624 1.014 1.378 1.326 2.262.33.867.494 1.837.494 2.912zm-3.224 0c0-1.352-.294-2.418-.884-3.198-.572-.797-1.378-1.196-2.418-1.196-1.04 0-1.854.399-2.444 1.196-.572.78-.858 1.846-.858 3.198 0 1.37.286 2.453.858 3.25.59.797 1.404 1.196 2.444 1.196s1.846-.399 2.418-1.196c.59-.797.884-1.88.884-3.25zm6.465-6.344c.607-.173 1.396-.338 2.366-.494a20.41 20.41 0 013.224-.234c1.11 0 2.037.156 2.782.468.746.295 1.335.72 1.768 1.274.451.537.763 1.196.936 1.976.191.763.286 1.603.286 2.522V20h-3.146v-7.15c0-.728-.052-1.343-.156-1.846-.086-.52-.242-.936-.468-1.248a1.697 1.697 0 00-.884-.702c-.364-.156-.814-.234-1.352-.234a10.5 10.5 0 00-1.248.078 23.51 23.51 0 00-.962.13V20h-3.146V6.844z" fill="#707482"/></svg>