<svg width="240" height="43" viewBox="0 0 240 43" fill="none" xmlns="http://www.w3.org/2000/svg"><path d="M32 29.328h-.092c-1.457 0-2.996-1.512-2.996-2.94v-.09h-.223v.09c0 1.43-1.541 2.94-2.996 2.94h-.091v.22h.091c1.457 0 2.996 1.512 2.996 2.94v.089h.223v-.09c0-1.43 1.541-2.94 2.996-2.94H32v-.219zM6.4 10.485h-.091c-1.457 0-2.996-1.513-2.996-2.94v-.09H3.09v.09c0 1.43-1.542 2.94-2.996 2.94H0v.219h.091c1.457 0 2.996 1.512 2.996 2.94v.09h.223v-.09c0-1.43 1.542-2.94 2.996-2.94h.092v-.22H6.4zm0 6.282h-.091c-1.457 0-2.996-1.512-2.996-2.94v-.089H3.09v.09c0 1.43-1.542 2.94-2.996 2.94H0v.219h.091c1.457 0 2.996 1.512 2.996 2.94v.089h.223v-.09c0-1.43 1.542-2.94 2.996-2.94h.092v-.219H6.4zm6.4 0h-.09c-1.458 0-2.997-1.512-2.997-2.94v-.089H9.49v.09c0 1.43-1.541 2.94-2.996 2.94h-.091v.219h.091c1.457 0 2.996 1.512 2.996 2.94v.089h.223v-.09c0-1.43 1.541-2.94 2.996-2.94h.091v-.219zm-6.4 6.281h-.091c-1.457 0-2.996-1.512-2.996-2.94v-.09H3.09v.09c0 1.43-1.542 2.94-2.996 2.94H0v.22h.091c1.457 0 2.996 1.511 2.996 2.939v.09h.223v-.09c0-1.43 1.542-2.94 2.996-2.94h.092v-.219H6.4zm6.4 0h-.09c-1.458 0-2.997-1.512-2.997-2.94v-.09H9.49v.09c0 1.43-1.541 2.94-2.996 2.94h-.091v.22h.091c1.457 0 2.996 1.511 2.996 2.939v.09h.223v-.09c0-1.43 1.541-2.94 2.996-2.94h.091v-.219zm6.4 0h-.091c-1.458 0-2.997-1.512-2.997-2.94v-.09h-.223v.09c0 1.43-1.54 2.94-2.996 2.94h-.09v.22h.09c1.457 0 2.996 1.511 2.996 2.939v.09h.224v-.09c0-1.43 1.54-2.94 2.995-2.94h.092v-.219zm-12.8 6.28h-.091c-1.457 0-2.996-1.512-2.996-2.94v-.09H3.09v.09c0 1.43-1.542 2.94-2.996 2.94H0v.22h.091c1.457 0 2.996 1.512 2.996 2.94v.089h.223v-.09c0-1.43 1.542-2.94 2.996-2.94h.092v-.219H6.4zm6.4 0h-.09c-1.458 0-2.997-1.512-2.997-2.94v-.09H9.49v.09c0 1.43-1.541 2.94-2.996 2.94h-.091v.22h.091c1.457 0 2.996 1.512 2.996 2.94v.089h.223v-.09c0-1.43 1.541-2.94 2.996-2.94h.091v-.219zm12.799-12.561h-.091c-1.457 0-2.996-1.512-2.996-2.94v-.089h-.223v.09c0 1.43-1.542 2.94-2.996 2.94H19.2v.219h.092c1.457 0 2.996 1.512 2.996 2.94v.089h.223v-.09c0-1.43 1.541-2.94 2.996-2.94h.091v-.219zm0 6.281h-.091c-1.457 0-2.996-1.512-2.996-2.94v-.09h-.223v.09c0 1.43-1.542 2.94-2.996 2.94H19.2v.22h.092c1.457 0 2.996 1.511 2.996 2.939v.09h.223v-.09c0-1.43 1.541-2.94 2.996-2.94h.091v-.219zm0 6.28h-.091c-1.457 0-2.996-1.512-2.996-2.94v-.09h-.223v.09c0 1.43-1.542 2.94-2.996 2.94H19.2v.22h.092c1.457 0 2.996 1.512 2.996 2.94v.089h.223v-.09c0-1.43 1.541-2.94 2.996-2.94h.091v-.219zM32 16.767h-.092c-1.457 0-2.996-1.512-2.996-2.94v-.089h-.223v.09c0 1.43-1.541 2.94-2.996 2.94h-.091v.219h.091c1.457 0 2.996 1.512 2.996 2.94v.089h.223v-.09c0-1.43 1.541-2.94 2.996-2.94H32v-.219zm0-6.282h-.092c-1.457 0-2.996-1.513-2.996-2.94v-.09h-.223v.09c0 1.43-1.541 2.94-2.996 2.94h-.091v.219h.091c1.457 0 2.996 1.512 2.996 2.94v.09h.223v-.09c0-1.43 1.541-2.94 2.996-2.94H32v-.22zm0 12.563h-.092c-1.457 0-2.996-1.512-2.996-2.94v-.09h-.223v.09c0 1.43-1.541 2.94-2.996 2.94h-.091v.22h.091c1.457 0 2.996 1.511 2.996 2.939v.09h.223v-.09c0-1.43 1.541-2.94 2.996-2.94H32v-.219zm0 12.561h-.092c-1.457 0-2.996-1.513-2.996-2.94v-.09h-.223v.09c0 1.43-1.541 2.94-2.996 2.94h-.091v.219h.091c1.457 0 2.996 1.512 2.996 2.94v.09h.223v-.09c0-1.43 1.541-2.94 2.996-2.94H32v-.22zm-25.6 0h-.091c-1.457 0-2.996-1.513-2.996-2.94v-.09H3.09v.09c0 1.43-1.542 2.94-2.996 2.94H0v.219h.091c1.457 0 2.996 1.512 2.996 2.94v.09h.223v-.09c0-1.43 1.542-2.94 2.996-2.94h.092v-.22H6.4z" fill="#1EC1CB"/><path d="M99.396 16.23H88.261v-2.552h15.802v1.066l-11.135 15.01h11.135v2.553H88.261V31.24l11.135-15.01zm101.033 5.56c-4.168-.86-4.934-1.784-4.934-3.35 0-1.587 1.551-2.694 3.77-2.694 1.945 0 3.627.612 5.301 1.927l.213.168 1.562-1.998-.197-.152c-2.08-1.61-4.122-2.3-6.821-2.3-3.758 0-6.484 2.203-6.484 5.284 0 3.436 2.625 4.688 6.565 5.516 3.987.808 4.718 1.721 4.718 3.271 0 1.677-1.628 2.851-3.96 2.851-2.436 0-4.264-.73-6.318-2.515l-.201-.175-1.666 1.9.189.164c2.367 2.035 4.88 2.985 7.911 2.985 3.96 0 6.728-2.228 6.728-5.467 0-2.854-1.906-4.475-6.376-5.414zm-35.99 4.93a7.778 7.778 0 01-6.685 3.753c-4.276 0-7.752-3.353-7.752-7.471s3.48-7.472 7.752-7.472c2.865 0 5.34 1.52 6.685 3.753l2.262-1.26A10.416 10.416 0 00157.758 13c-5.723 0-10.378 4.487-10.378 9.998 0 5.515 4.655 10.002 10.378 10.002 3.832 0 7.149-2.035 8.943-5.023l-2.262-1.256zm-99.192 5.572h2.892l6.655-15.036 6.658 15.04h2.892v-.004l-8.228-18.603h-3.932s1.16.28.27 2.303l-7.207 16.3zm104.517 0h2.892l6.654-15.036 6.658 15.04h2.892v-.004l-8.228-18.603H176.7s1.16.28.271 2.303l-7.207 16.3zM41 13.689a1.846 1.846 0 011.187 1.33c.132.482.197 1.312.197 2.501v14.768h3.008V24.18h11.093v8.113h3.009V13.689h-3.008v8.09H45.392v-8.09H41zm69.172 0a1.845 1.845 0 011.187 1.33c.132.482.198 1.327.198 2.516v14.757h12.701v-2.515h-9.689v-5.613h9.14v-2.37h-9.14v-5.578h9.678v-2.527h-14.075zm21.205.012a1.849 1.849 0 011.187 1.33c.131.48.197 1.327.197 2.515v14.742h11.785V29.78h-8.777V13.69l-4.392.01zm89.158 18.591V16.167H227V13.69h-16.023v2.479h6.492v12.278c0 1.189-.066 2.035-.197 2.516a1.833 1.833 0 01-1.187 1.33h4.45z" fill="#000"/></svg>