<svg xmlns="http://www.w3.org/2000/svg" width="50pt" height="50pt" viewBox="0 0 50 50"><path d="M25 1.05c-.219 0-.434.071-.621.212l-23 17.949c-.43.34-.508.969-.168 1.41.34.43.969.508 1.406.168L4 19.711V46c0 .55.45 1 1 1h13V27h14v20h13c.55 0 1-.45 1-1V19.71l1.379 1.08c.191.14.402.21.621.21.3 0 .59-.129.79-.379a1.01 1.01 0 00-.173-1.41L41 13.27V6c0-.55-.45-1-1-1h-4c-.27 0-.52.11-.71.29-.18.19-.29.44-.29.71v2.59l-9.383-7.328A1.009 1.009 0 0025 1.05zm-5 28.048V47h10V29.098zM27 36c.55 0 1 .45 1 1s-.45 1-1 1-1-.45-1-1 .45-1 1-1zm0 0" fill="#2160c0"/></svg>