<svg width="167" height="40" viewBox="0 0 167 40" fill="none" xmlns="http://www.w3.org/2000/svg"><rect width="167" height="40" rx="5" fill="#2160C0"/><path d="M17.918 19.768h4.368v6.249c-.68.216-1.371.38-2.074.492-.703.111-1.518.167-2.443.167-1.946 0-3.46-.577-4.544-1.732-1.084-1.16-1.626-2.783-1.626-4.869 0-1.336.266-2.505.8-3.507a5.433 5.433 0 012.32-2.302c1.008-.534 2.188-.8 3.542-.8 1.37 0 2.648.252 3.832.756l-.58 1.318c-1.16-.492-2.277-.738-3.349-.738-1.564 0-2.786.466-3.665 1.397-.879.932-1.318 2.224-1.318 3.876 0 1.735.421 3.05 1.265 3.947.85.896 2.095 1.344 3.736 1.344.89 0 1.76-.102 2.61-.307v-3.956h-2.874v-1.335zM33.793 26.5H26.63V13.65h7.163v1.327h-5.669v4.14h5.326v1.319h-5.326v4.728h5.669V26.5zm8.062 0H40.36V14.977h-4.069V13.65h9.633v1.327h-4.07V26.5zm84.463-4.855c-1.62 0-2.409.589-2.409 1.806 0 1.218.589 1.813 1.859 1.813a5.142 5.142 0 003.323-1.102v-2.308a18.079 18.079 0 00-2.773-.21zM131.5 27.5h-1.444l-.645-1.157a6.345 6.345 0 01-3.643 1.157c-2.834 0-4.268-1.35-4.268-4.01 0-2.66 1.619-4.087 4.818-4.087.927 0 1.854.07 2.773.209v-.931c0-1.306-.939-1.94-2.868-1.94a11.513 11.513 0 00-3.544.612l-.259.083V15.15l.144-.044a11.914 11.914 0 013.659-.606c3.498 0 5.277 1.383 5.277 4.115V27.5zm-65 0h-2.605v-8.185a2.614 2.614 0 00-.677-1.771 2.468 2.468 0 00-1.675-.806h-.14a4.846 4.846 0 00-3.31 1.468V27.5H55.5v-18h1.335c.334 0 .654.137.89.38s.369.573.369.917v4.766a5.885 5.885 0 013.6-1.136c3.191 0 4.806 1.662 4.806 4.926V27.5zm6.812-5.855c-1.627 0-2.418.589-2.418 1.806 0 1.218.59 1.813 1.862 1.813a5.132 5.132 0 003.33-1.102v-2.308a18.287 18.287 0 00-2.774-.21zM78.5 27.5h-1.447l-.626-1.157a6.354 6.354 0 01-3.65 1.157c-2.84 0-4.277-1.35-4.277-4.01 0-2.66 1.622-4.087 4.832-4.087.928.001 1.855.071 2.774.209v-.931c0-1.306-.941-1.94-2.874-1.94-1.21.015-2.413.22-3.57.612l-.26.083V15.15l.145-.044a11.958 11.958 0 013.665-.606c3.505 0 5.288 1.383 5.288 4.115V27.5zm11.774 0H80.5v-1.978l.052-.061 6.947-8.724h-6.768V14.5H90.5v2.094l-.047.06-6.863 8.724h6.684V27.5zm3.963-7.938h6.572c-.115-1.92-1.143-2.85-3.109-2.85-2.109 0-3.234.93-3.429 2.85h-.034zm4.2 7.919c-4.606 0-6.937-2.234-6.937-6.637 0-4.209 2.091-6.344 6.217-6.344 3.84 0 5.783 1.854 5.783 5.503a12.84 12.84 0 01-.109 1.65l-.028.199h-9.137c.085 2.283 1.531 3.4 4.423 3.4 1.307.02 2.611-.135 3.874-.462l.297-.077v2.25l-.171.044a16.07 16.07 0 01-4.252.49m9.103.003h-2v-18h1.029c.258 0 .505.137.687.38.182.243.284.573.284.917V27.5zm8.595 0c-4.377 0-6.595-2.27-6.595-6.74 0-4.155 2.218-6.26 6.595-6.26a13.82 13.82 0 013.242.364l.163.039v2.248l-.257-.06a13.846 13.846 0 00-3.264-.353c-2.653 0-3.946 1.317-3.946 4.022 0 3.026 1.293 4.502 3.946 4.502 1.097.01 2.192-.108 3.264-.352l.257-.066v2.253l-.163.039a13.82 13.82 0 01-3.242.364zm22.779 0a18.66 18.66 0 01-4.704-.606l-.172-.044v-2.392l.298.094c1.477.468 3.022.708 4.578.71 2.862 0 2.862-1.184 2.862-1.576 0-.622-.201-1.449-1.946-1.449h-1.837c-2.954 0-4.453-1.322-4.453-3.929 0-2.607 1.906-3.808 5.66-3.808 1.584.002 3.16.206 4.688.606l.171.044v2.386l-.297-.093a15.344 15.344 0 00-4.579-.706c-3.027 0-3.028 1.185-3.028 1.571 0 .992.573 1.455 1.82 1.455h1.861c3.124 0 4.704 1.317 4.704 3.923 0 2.607-1.9 3.814-5.643 3.814m12.643 0h-2.446c-2.36 0-3.554-1.21-3.554-3.602V12.5h1.878l.499 2.029h3.623v2.232h-3.206v6.973c0 1.044.435 1.534 1.363 1.534h1.843V27.5z" fill="#fff"/></svg>