<svg xmlns="http://www.w3.org/2000/svg" viewBox="0 0 48 48" width="18" height="18"><path d="M12.5 5c-2.042 0-3.763.82-4.871 2.066C6.52 8.313 6 9.916 6 11.5c0 1.583.52 3.187 1.629 4.434.824.927 1.989 1.617 3.371 1.91v12.312c-1.382.293-2.547.983-3.371 1.91C6.52 33.313 6 34.916 6 36.5c0 1.583.52 3.187 1.629 4.434C8.737 42.18 10.459 43 12.5 43c3.572 0 6.5-2.928 6.5-6.5 0-3.055-2.145-5.633-5-6.316V17.816c2.855-.683 5-3.26 5-6.316C19 7.928 16.072 5 12.5 5zm14.97.986a1.5 1.5 0 00-1.03.453l-4 4a1.5 1.5 0 000 2.122l4 4a1.5 1.5 0 102.12-2.122L27.122 13H31.5c1.398 0 2.5 1.102 2.5 2.5v14.805c-1.35.301-2.561.85-3.371 1.761C29.52 33.313 29 34.916 29 36.5c0 1.583.52 3.187 1.629 4.434C31.737 42.18 33.459 43 35.5 43c3.572 0 6.5-2.928 6.5-6.5 0-3.041-2.165-5.497-5-6.195V15.5c0-3.02-2.48-5.5-5.5-5.5h-4.379l1.44-1.44a1.5 1.5 0 00-1.09-2.574zM12.5 8c1.95 0 3.5 1.55 3.5 3.5a3.47 3.47 0 01-3.36 3.486 1.5 1.5 0 00-.163-.007 1.5 1.5 0 00-.13.007c-1.193-.035-1.942-.444-2.476-1.045C9.313 13.313 9 12.417 9 11.5c0-.917.313-1.813.871-2.441C10.43 8.43 11.208 8 12.5 8zm-.148 25.014a1.5 1.5 0 00.289 0A3.47 3.47 0 0116 36.5c0 1.95-1.55 3.5-3.5 3.5-1.292 0-2.07-.43-2.629-1.059C9.313 38.313 9 37.417 9 36.5c0-.917.313-1.813.871-2.441.535-.602 1.285-1.01 2.48-1.045zm23.056.004a1.5 1.5 0 00.178 0C37.493 33.065 39 34.58 39 36.5c0 1.95-1.55 3.5-3.5 3.5-1.292 0-2.07-.43-2.629-1.059-.558-.628-.871-1.524-.871-2.441 0-.917.313-1.813.871-2.441.542-.61 1.311-1.017 2.537-1.041z"/></svg>