<svg xmlns="http://www.w3.org/2000/svg" viewBox="0 0 50 50" width="25" height="25"><path d="M18.652 3.045c-4.272.035-7.056 1.986-7.238 2.117a1.008 1.008 0 00-.389.582L7.787 19.518a1 1 0 001.215 1.2c3.408-1.076 8.58-1.228 13.889 1.739a.994.994 0 00.88.047c.285-.123.499-.373.575-.674l3.797-14.883a.998.998 0 00-.43-1.09c-3.397-2.165-6.497-2.833-9.06-2.812zm12.114 5.154a.983.983 0 00-.463.065.994.994 0 00-.606.683L25.924 23.74a.999.999 0 00.385 1.059C29.739 27.265 33.207 28 36.137 28c2.842 0 5.178-.69 6.484-1.19a1 1 0 00.617-.705l3.735-15.876a1.001 1.001 0 00-1.557-1.041c-.252.178-6.191 4.464-14.205-.833a1.009 1.009 0 00-.445-.156zM13.604 22.025c-2.757.07-5.01.818-6.258 1.295a.997.997 0 00-.617.705L3.025 39.771a1.472 1.472 0 00-.025.274c0 .374.21.715.543.887.329.17 1.039-.075 1.039-.075s5.872-4.357 13.484.41a.997.997 0 00.893.063.998.998 0 00.586-.676l3.767-14.773a1.002 1.002 0 00-.427-1.09c-3.263-2.229-6.524-2.836-9.281-2.766zm12.328 5.059a1.003 1.003 0 00-1.053.75l-3.772 14.783a.999.999 0 00.397 1.067C25.199 46.266 28.587 47 31.229 47c.862 0 1.645-.085 2.334-.201 3.057-.514 4.946-1.863 5.025-1.92.21-.153.352-.427.396-.697l3.194-13.569a1.002 1.002 0 00-1.213-1.201c-5.108 1.265-10.18.54-14.594-2.182a.994.994 0 00-.44-.146z"/></svg>