<svg width="270" height="43" viewBox="0 0 270 43" fill="none" xmlns="http://www.w3.org/2000/svg">
<path d="M154.3 34.2H152.2L151.3 32.7C149.7 33.7 147.9 34.2 146 34.2C141.9 34.2 139.8 32.4 139.8 29C139.8 25.5 142.1 23.7 146.8 23.7C148.1 23.7 149.5 23.8 150.8 24V22.8C150.8 21.1 149.4 20.3 146.7 20.3C145.1 20.3 143.3 20.6 141.6 21.1L141.2 21.2V18.2L141.4 18.1C143.2 17.6 145 17.3 146.7 17.3C151.8 17.3 154.3 19.1 154.3 22.7V34.2ZM146.8 26.5C144.5 26.5 143.3 27.3 143.3 28.9C143.3 30.5 144.2 31.3 146 31.3C147.9 31.3 149.5 30.8 150.8 29.9V26.9C149.5 26.6 148.1 26.5 146.8 26.5Z" fill="#071B2C"/>
<path d="M65.9001 34.2H62.4001V23.5C62.4001 21.7 61.0001 20.2 59.2001 20.1H59.0001C57.5001 20.1 56.0001 20.7 54.6001 22V34.1H51.1001V10.8H52.9001C53.8001 10.8 54.6001 11.6 54.6001 12.5V18.7C56.0001 17.7 57.6001 17.2 59.4001 17.2C63.7001 17.2 65.8001 19.4 65.8001 23.6L65.9001 34.2C65.9001 34.2 65.8001 34.2 65.9001 34.2Z" fill="#071B2C"/>
<path d="M82.7 34.2H80.6L79.7 32.7C78.1 33.7 76.3 34.2 74.4 34.2C70.3 34.2 68.2 32.4 68.2 29C68.2 25.5 70.5 23.7 75.2 23.7C76.5 23.7 77.9 23.8 79.2 24V22.8C79.2 21.1 77.8 20.3 75.1 20.3C73.4 20.3 71.7 20.6 70 21.1L69.6 21V18L69.8 17.9C71.6 17.4 73.4 17.1 75.1 17.1C80.1 17.1 82.7 18.9 82.7 22.5V34.2ZM75.2 26.5C72.9 26.5 71.7 27.3 71.7 28.9C71.7 30.5 72.6 31.3 74.4 31.3C76.3 31.3 77.9 30.8 79.2 29.9V26.9C77.9 26.6 76.5 26.5 75.2 26.5Z" fill="#071B2C"/>
<path d="M98.6001 34.2H85.1001V31.6L85.2001 31.5L94.7001 20.1H85.4001V17.2H98.8001V19.9V20L89.4001 31.4H98.6001V34.2Z" fill="#071B2C"/>
<path d="M109.1 34.2C103.3 34.2 100.3 31.3 100.3 25.5C100.3 20 102.9 17.2 108.1 17.2C112.9 17.2 115.4 19.6 115.4 24.4C115.4 25.1 115.4 25.8 115.3 26.5V26.8H103.8C103.9 29.8 105.7 31.3 109.4 31.3C111.2 31.3 112.9 31.1 114.3 30.7L114.7 30.6V33.6L114.5 33.7C113 34 111.2 34.2 109.1 34.2ZM103.8 23.8H112.1C112 21.3 110.7 20.1 108.2 20.1C105.5 20.1 104.1 21.3 103.8 23.8Z" fill="#071B2C"/>
<path d="M121.8 34.2H118.3V10.8H120.1C121 10.8 121.8 11.6 121.8 12.5V34.2Z" fill="#071B2C"/>
<path d="M133.4 34.2C127.4 34.2 124.4 31.2 124.4 25.4C124.4 20 127.4 17.2 133.4 17.2C135 17.2 136.5 17.4 137.8 17.7L138 17.8V20.7L137.6 20.6C136.3 20.3 134.8 20.1 133.1 20.1C129.5 20.1 127.7 21.8 127.7 25.4C127.7 29.4 129.5 31.3 133.1 31.3C134.7 31.3 136.2 31.1 137.6 30.8L138 30.7V33.6L137.8 33.7C136.4 34 134.9 34.2 133.4 34.2Z" fill="#071B2C"/>
<path d="M163.7 34.2C161.7 34.2 159.7 33.9 157.8 33.4L157.6 33.3V30.2L158 30.3C159.9 30.9 161.8 31.2 163.8 31.2C167.4 31.2 167.4 29.7 167.4 29.1C167.4 28.3 167.1 27.2 165 27.2H162.7C159 27.2 157.1 25.5 157.1 22.1C157.1 18.8 159.5 17.1 164.2 17.1C166.2 17.1 168.2 17.4 170.1 17.9L170.3 18V21.1L169.9 21C168 20.4 166.1 20.1 164.2 20.1C160.4 20.1 160.4 21.6 160.4 22.2C160.4 23.5 161.1 24.1 162.7 24.1H165C168.9 24.1 170.9 25.8 170.9 29.2C170.8 32.5 168.4 34.2 163.7 34.2Z" fill="#071B2C"/>
<path d="M180.9 34.2H177.9C175 34.2 173.5 32.6 173.5 29.5V14.5H175.8L176.4 17.2H180.9V20.1H176.9V29.2C176.9 30.6 177.4 31.2 178.6 31.2H180.9V34.2Z" fill="#071B2C"/>
<path d="M39.6 0H3.3C1.5 0 0 1.5 0 3.3V39.6C0 41.4 1.5 42.9 3.3 42.9H39.6C41.4 42.9 42.9 41.4 42.9 39.6V3.3C42.9 1.5 41.5 0 39.6 0ZM32.7 33.5H15.3C12.5 33.5 9.8 32.5 7.6 30.7C4.8 28.4 3.3 25 3.3 21.5C3.3 14.9 8.7 9.5 15.3 9.5C18.4 9.5 21.3 10.7 23.5 12.7C24.4 12.3 25.4 12.1 26.4 12.1C30.7 12.1 34.3 15.5 34.5 19.8C37.4 20.6 39.6 23.3 39.6 26.5C39.7 30.4 36.6 33.5 32.7 33.5Z" fill="#2E7DE1"/>
<path d="M15.3 12.5C17.6 12.5 19.8 13.4 21.5 15L8.80005 27.6C7.20005 25.9 6.30005 23.7 6.30005 21.4C6.30005 16.5 10.3 12.5 15.3 12.5Z" fill="#071B2C"/>
<path d="M26.5 15.2C25.6 15.2 24.7 15.5 23.9 15.9L23.7 16.1L10.7 29.1C12.1 30 13.6999 30.4 15.4 30.4H22L31.5999 20.8V20.2C31.5999 17.5 29.2999 15.2 26.5 15.2Z" fill="#071B2C"/>
<path d="M33.1 22.7C35.1 22.9 36.7001 24.6 36.7001 26.6C36.7001 28.8 34.9 30.5 32.8 30.5H25.3L33.1 22.7Z" fill="#2E7DE1"/>
<path d="M204.4 33.3C202.9 33.9 201.3 34.1 199.4 34.1C193.3 34.1 190.2 31.1 190.2 25.2C190.2 19.6 193.3 16.8 199.4 16.8C201.3 16.8 202.9 17.1 204.4 17.6V20.5C202.9 19.9 201.3 19.5 199.6 19.5C195.5 19.5 193.5 21.4 193.5 25.1C193.5 29.2 195.5 31.2 199.6 31.2C201.3 31.2 202.9 30.9 204.4 30.2V33.3Z" fill="#2E7DE1"/>
<path d="M210.2 17.1V31.4H217V34.1H207.1V17.1H210.2Z" fill="#2E7DE1"/>
<path d="M217.3 25.6C217.3 19.8 220.1 17 225.8 17C231.4 17 234.2 19.9 234.2 25.6C234.2 31.3 231.4 34.2 225.8 34.2C220.4 34.2 217.6 31.3 217.3 25.6ZM225.8 31.4C229.2 31.4 230.9 29.4 230.9 25.5C230.9 21.6 229.2 19.7 225.8 19.7C222.3 19.7 220.5 21.6 220.5 25.5C220.6 29.5 222.3 31.4 225.8 31.4Z" fill="#2E7DE1"/>
<path d="M236.9 27.4V17.1H240V27.4C240 30.1 241.4 31.5 244.2 31.5C247 31.5 248.4 30.1 248.4 27.4V17.1H251.6V27.4C251.6 31.9 249.2 34.2 244.3 34.2C239.4 34.2 236.9 31.9 236.9 27.4Z" fill="#2E7DE1"/>
<path d="M254.9 34.1V17.1H261.6C267.2 17.1 270 19.8 270 25.1C270 31.1 267.2 34.1 261.6 34.1H254.9ZM261.5 31.3C265 31.3 266.8 29.2 266.8 25.1C266.8 21.6 265 19.8 261.5 19.8H258V31.3H261.5Z" fill="#2E7DE1"/>
</svg>
