<svg id="LOGOS" xmlns="http://www.w3.org/2000/svg" viewBox="0 0 185 258"><defs><style>.cls-1{fill:#8e134a;}.cls-1,.cls-2{fill-rule:evenodd;}.cls-2,.cls-3{fill:#ca2171;}</style></defs><path d="M27,204c0-6.3,3.66-10,12.24-10a39,39,0,0,1,9.34,1.14l-.72,5.63a50.35,50.35,0,0,0-8.42-.88c-4.49,0-5.94,1.55-5.94,5.22v13.22c0,3.66,1.45,5.21,5.94,5.21a50.35,50.35,0,0,0,8.42-.88l.72,5.63a38.54,38.54,0,0,1-9.34,1.14c-8.58,0-12.24-3.67-12.24-10Z"/><path d="M62.53,229.46c-8.63,0-11-4.75-11-9.92v-6.35c0-5.16,2.32-9.91,11-9.91s10.94,4.75,10.94,9.91v6.35C73.47,224.71,71.15,229.46,62.53,229.46Zm0-20.81c-3.36,0-4.65,1.49-4.65,4.34v6.76c0,2.84,1.29,4.34,4.65,4.34s4.64-1.5,4.64-4.34V213C67.17,210.14,65.88,208.65,62.53,208.65Z"/><path d="M92.63,228.94V211.38c0-1.34-.57-2-2-2a17.34,17.34,0,0,0-6.56,2.12v17.45h-6.3V203.79h4.8l.62,2.12a25.19,25.19,0,0,1,10.07-2.63c4.18,0,5.68,2.94,5.68,7.43v18.23Z"/><path d="M111.89,229.46a29.61,29.61,0,0,1-8.68-1.45l.88-4.8a28.19,28.19,0,0,0,7.49,1.08c2.79,0,3.2-.62,3.2-2.53,0-1.54-.31-2.32-4.39-3.3-6.14-1.5-6.87-3.05-6.87-7.9,0-5.06,2.23-7.28,9.4-7.28a33.45,33.45,0,0,1,7.54.87l-.62,5a44.36,44.36,0,0,0-6.92-.72c-2.73,0-3.2.62-3.2,2.17,0,2,.16,2.17,3.57,3,7,1.85,7.69,2.78,7.69,8C121,226.46,119.48,229.46,111.89,229.46Z"/><path d="M131.41,203.79v17.56c0,1.34.57,2,2,2a17.3,17.3,0,0,0,6.56-2.11V203.79h6.3v25.15h-4.8l-.62-2.11a25.35,25.35,0,0,1-10.07,2.63c-4.18,0-5.68-2.94-5.68-7.44V203.79Z"/><path d="M151.7,228.94V193.52l6.3-.88v36.3Z"/><path d="M34,186.07v-4.83H29.62v4.83H27.37v-11.6h2.25v4.87H34v-4.87h2.25v11.6Zm10.52,0H42.77l-.16-.57a4.91,4.91,0,0,1-2.6.74c-1.59,0-2.27-1.05-2.27-2.49,0-1.7.77-2.35,2.54-2.35h2.09v-.88c0-.93-.26-1.25-1.66-1.25a12.1,12.1,0,0,0-2.41.26l-.27-1.6a11.79,11.79,0,0,1,3-.4c2.74,0,3.55.93,3.55,3Zm-2.19-3.16H40.76c-.71,0-.91.19-.91.82s.2.84.88.84a3.57,3.57,0,0,0,1.64-.42Zm6.76,3.33a10.9,10.9,0,0,1-3-.48l.31-1.6a9.94,9.94,0,0,0,2.59.36c1,0,1.11-.2,1.11-.84s-.11-.77-1.52-1.1c-2.13-.5-2.38-1-2.38-2.63s.77-2.42,3.26-2.42a12.5,12.5,0,0,1,2.61.29l-.22,1.67a15.87,15.87,0,0,0-2.39-.24c-1,0-1.11.21-1.11.72,0,.67,0,.72,1.23,1,2.43.62,2.67.93,2.67,2.65S51.76,186.24,49.13,186.24Zm10-.17v-5.84c0-.45-.2-.67-.7-.67a6.33,6.33,0,0,0-2.27.7v5.81H54V174.31l2.18.33v3.7a8,8,0,0,1,3.18-.81c1.45,0,2,1,2,2.48v6.06Zm4-9.55v-2.05h2.18v2.05Zm0,9.55V177.7h2.18v8.37Zm3.92-8.3c0-2.09,1.27-3.31,4.24-3.31a14.1,14.1,0,0,1,3.24.38l-.25,1.87a18.59,18.59,0,0,0-2.92-.29c-1.55,0-2.06.51-2.06,1.73v4.4c0,1.22.51,1.73,2.06,1.73a18.59,18.59,0,0,0,2.92-.29l.25,1.87a14.1,14.1,0,0,1-3.24.38c-3,0-4.24-1.22-4.24-3.31Zm12.3,8.47c-3,0-3.79-1.58-3.79-3.3v-2.11c0-1.72.8-3.3,3.79-3.3s3.79,1.58,3.79,3.3v2.11C83.15,184.66,82.35,186.24,79.36,186.24Zm0-6.92c-1.16,0-1.61.5-1.61,1.44V183c0,1,.45,1.44,1.61,1.44S81,184,81,183v-2.25C81,179.82,80.52,179.32,79.36,179.32Zm9.94.14A16.47,16.47,0,0,0,87,180.68v5.39H84.81V177.7h1.84l.14.93a10.18,10.18,0,0,1,2.29-1.1ZM98,183.29c0,1.85-.86,3-2.88,3a12.23,12.23,0,0,1-2.32-.24v3.42l-2.19.32v-12h1.74l.21.71a4.75,4.75,0,0,1,2.76-.88c1.75,0,2.68,1,2.68,2.91Zm-5.2.94a10,10,0,0,0,1.93.22c.79,0,1.09-.36,1.09-1.11v-3c0-.68-.27-1.06-1.07-1.06a3.14,3.14,0,0,0-2,.75Z"/><path class="cls-1" d="M90.19,106.08a13.6,13.6,0,1,1,13.57-13.63,13.57,13.57,0,0,1-13.57,13.63"/><path class="cls-2" d="M116.66,98.75a6.28,6.28,0,1,1,6.27-6.27,6.25,6.25,0,0,1-6.27,6.27"/><path class="cls-2" d="M139.61,104.66h0a6,6,0,1,1,.13-.49c-.06.15-.06.31-.13.49"/><path class="cls-2" d="M135.17,88.5A6.28,6.28,0,1,1,139.83,81a6.4,6.4,0,0,1,.06,2.46,6,6,0,0,1-4.72,5.09"/><path class="cls-2" d="M157.49,104a6.28,6.28,0,1,1-5.1-7.27,6.31,6.31,0,0,1,5.22,6.71,1.69,1.69,0,0,0-.12.56"/><path class="cls-2" d="M152.39,88.23A6.26,6.26,0,1,1,157.54,81a6.77,6.77,0,0,1,.06,1.62,6.23,6.23,0,0,1-5.21,5.59"/><path class="cls-2" d="M148,125.69h0a6.37,6.37,0,1,1,.77-2.57,5.67,5.67,0,0,1-.77,2.57"/><path class="cls-2" d="M145.74,68.05a6.3,6.3,0,1,1,2.4-8.57,5.92,5.92,0,0,1,.77,3.63,6.28,6.28,0,0,1-3.17,4.94"/><path class="cls-3" d="M90.42,155.69a63.06,63.06,0,1,1,0-126.11,62.45,62.45,0,0,1,38.3,13l-7.71,10A50.41,50.41,0,1,0,90.42,143,49.94,49.94,0,0,0,121,132.68l7.69,10.06A62.49,62.49,0,0,1,90.42,155.69Z"/></svg>